<svg width="542" height="567" viewBox="0 0 542 567" fill="none" xmlns="http://www.w3.org/2000/svg">
<g clip-path="url(#clip0_2_36)">
<rect x="52.8372" y="56.7684" width="370" height="76" rx="20" transform="rotate(11.0024 52.8372 56.7684)" fill="#FE635C"/>
<path d="M78.1425 78.2852C82.9268 77.698 87.7742 78.6404 91.99 80.9775C96.2058 83.3146 99.5735 86.9263 101.61 91.295C103.647 95.6637 104.249 100.565 103.329 105.297C102.409 110.028 100.015 114.347 96.4894 117.635C92.9639 120.922 88.4883 123.009 83.704 123.596C78.9196 124.183 74.0722 123.241 69.8564 120.904C65.6407 118.566 62.273 114.955 60.236 110.586C58.1991 106.217 57.5975 101.316 58.5174 96.5843C59.4374 91.8527 61.8316 87.5337 65.3571 84.2465C68.8825 80.9592 73.3581 78.8724 78.1425 78.2852Z" fill="white"/>
<path d="M82.1605 97.6868L79.4748 97.1646L79.7771 95.6097L84.1237 96.4548L81.64 109.23L79.9791 108.907L82.1605 97.6868Z" fill="#16063E"/>
<path d="M116.77 93.1528C117.21 90.8912 119.389 89.6827 122.11 90.2118C124.725 90.7202 126.104 92.492 125.721 94.8381L123.46 94.3983C123.623 93.2749 122.955 92.4665 121.683 92.2192C120.287 91.9478 119.255 92.444 119.046 93.5218C118.867 94.4406 119.262 95.0492 120.292 95.5062L122.238 96.3429C124.354 97.2494 125.212 98.5898 124.837 100.516C124.37 102.919 122.195 104.109 119.35 103.556C116.594 103.021 115.077 101.204 115.474 98.8786L117.735 99.3183C117.54 100.417 118.296 101.243 119.745 101.524C121.247 101.816 122.328 101.348 122.538 100.27C122.706 99.4046 122.364 98.8063 121.349 98.3705L119.388 97.5126C117.29 96.6096 116.386 95.1318 116.77 93.1528ZM126.18 100.098C126.709 97.3773 129.035 95.8857 131.738 96.4113C134.441 96.9369 136.038 99.1911 135.509 101.912C134.98 104.633 132.655 106.125 129.952 105.599C127.248 105.074 125.651 102.819 126.18 100.098ZM128.336 100.517C128.027 102.108 128.842 103.385 130.326 103.673C131.81 103.962 133.045 103.083 133.354 101.493C133.663 99.9028 132.848 98.6258 131.364 98.3372C129.879 98.0486 128.645 98.9272 128.336 100.517ZM137.163 97.7227L138.417 97.9666L138.624 96.9065C139.084 94.5388 140.531 93.7932 142.421 94.1608C142.757 94.2261 143.16 94.3228 143.517 94.4656L143.16 96.3032L142.4 96.1555C141.305 95.9425 140.93 96.4564 140.761 97.3221L140.555 98.3823L142.64 98.7877L142.29 100.59L140.205 100.185L138.858 107.111L136.72 106.695L138.067 99.7689L136.812 99.525L137.163 97.7227ZM145.529 108.408L143.373 107.989L144.72 101.062L143.042 100.736L143.392 98.9338L145.071 99.2601L145.6 96.5391L147.755 96.9582L147.226 99.6793L148.922 100.009L148.572 101.811L146.876 101.482L145.529 108.408ZM150.491 109.373L149.361 100.094L151.605 100.531L152.026 104.5C152.086 105.227 152.115 106.021 152.116 106.865C152.44 106.047 152.705 105.531 153.156 104.72L155.086 101.207L157.277 101.633L157.715 105.606C157.752 105.98 157.851 107.356 157.844 107.96C158.113 107.334 158.598 106.346 158.864 105.829L160.758 102.31L163.037 102.753L158.319 110.894L156.305 110.503L155.838 106.488C155.708 105.271 155.675 104.403 155.69 103.947C155.523 104.336 155.244 104.924 154.524 106.269L152.594 109.781L150.491 109.373ZM164.767 112.386C162.912 112.026 161.99 110.728 162.31 109.085C162.622 107.477 163.984 106.697 166.083 106.939L168.735 107.254L168.773 107.059C169.003 105.875 168.389 105.261 167.294 105.048C166.022 104.801 165.212 105.193 165.033 106.112L163.196 105.755C163.563 103.864 165.359 102.93 167.726 103.39C170.076 103.847 171.278 105.401 170.807 107.821L169.777 113.122L167.886 112.755L167.978 111.434C167.431 112.263 166.127 112.651 164.767 112.386ZM165.79 110.898C167.115 111.156 168.118 110.526 168.379 109.183L168.468 108.724L166.621 108.511C165.254 108.374 164.655 108.716 164.518 109.422C164.363 110.218 164.818 110.709 165.79 110.898ZM179.076 105.835L178.687 107.831L177.892 107.677C176.337 107.375 175.204 108.016 174.874 109.712L174.05 113.953L171.894 113.534L173.588 104.823L175.62 105.218L175.496 106.514C176.036 105.721 176.979 105.299 178.145 105.526C178.446 105.584 178.739 105.678 179.076 105.835ZM182.398 115.814C179.8 115.309 178.348 113.065 178.874 110.362C179.406 107.623 181.558 106.079 184.12 106.577C186.735 107.086 188.056 109.158 187.527 111.879L187.4 112.533L180.824 111.272C180.684 112.841 181.345 113.776 182.777 114.054C183.96 114.284 184.827 113.976 185.236 113.194L187.233 113.582C186.49 115.418 184.677 116.257 182.398 115.814ZM183.794 108.348C182.522 108.1 181.611 108.638 181.144 109.905L185.526 110.756C185.76 109.555 185.084 108.598 183.794 108.348ZM194.566 117.942L192.216 117.485L199.392 105.476L201.707 105.926L203.86 119.749L201.475 119.285L201.013 116.096L196.189 115.158L194.566 117.942ZM199.509 109.496L197.232 113.381L200.73 114.061L200.057 109.602C200.016 109.246 199.968 108.833 199.984 108.561C199.883 108.798 199.702 109.167 199.509 109.496ZM207.318 120.421L205.162 120.002L206.859 111.273L208.856 111.661L208.812 112.827C209.532 112.05 210.692 111.743 211.876 111.974C214.066 112.4 214.933 113.98 214.493 116.242L213.449 121.613L211.293 121.194L212.238 116.335C212.523 114.868 211.936 114.021 210.823 113.804C209.498 113.547 208.506 114.307 208.231 115.721L207.318 120.421ZM218.119 122.759C216.264 122.399 215.343 121.101 215.662 119.458C215.975 117.85 217.337 117.07 219.435 117.312L222.088 117.627L222.126 117.432C222.356 116.248 221.742 115.634 220.646 115.421C219.374 115.174 218.564 115.566 218.386 116.485L216.548 116.128C216.916 114.237 218.711 113.303 221.079 113.763C223.429 114.22 224.63 115.774 224.16 118.194L223.129 123.495L221.239 123.128L221.33 121.807C220.784 122.636 219.48 123.024 218.119 122.759ZM219.142 121.271C220.467 121.529 221.47 120.899 221.731 119.556L221.821 119.096L219.973 118.884C218.606 118.747 218.008 119.089 217.871 119.795C217.716 120.591 218.17 121.082 219.142 121.271ZM227.42 124.329L225.282 123.914L227.838 110.768L229.976 111.184L227.42 124.329ZM228.135 128.668L228.485 126.865L229.775 127.116C230.623 127.281 231.191 127.19 231.761 126.237L232.136 125.631L230.389 115.848L232.668 116.291L233.675 123.088L237.28 117.188L239.506 117.621L233.155 127.461C232.186 128.96 231.136 129.453 229.705 129.174C229.104 129.058 228.588 128.884 228.135 128.668ZM238.688 123.769L240.737 124.168C240.607 124.931 241.08 125.518 242.069 125.711C243.076 125.906 243.703 125.606 243.827 124.97C243.913 124.529 243.745 124.166 243.002 123.838L241.501 123.161C239.998 122.502 239.382 121.612 239.653 120.216C239.987 118.503 241.635 117.759 243.649 118.151C245.61 118.532 246.716 119.921 246.404 121.621L244.354 121.222C244.481 120.477 244.079 119.903 243.248 119.742C242.4 119.577 241.83 119.869 241.703 120.523C241.606 121.018 241.933 121.412 242.641 121.733L244.141 122.409C245.543 123.03 246.154 123.846 245.893 125.189C245.55 126.956 243.835 127.759 241.679 127.34C239.506 126.918 238.354 125.483 238.688 123.769ZM250.138 117.872C249.395 117.728 248.926 117.032 249.067 116.307C249.207 115.583 249.9 115.131 250.643 115.275C251.349 115.412 251.822 116.091 251.682 116.816C251.541 117.54 250.844 118.01 250.138 117.872ZM247.023 128.141L248.72 119.412L250.875 119.831L249.178 128.56L247.023 128.141ZM251.249 126.212L253.299 126.61C253.169 127.373 253.641 127.96 254.631 128.153C255.638 128.349 256.265 128.049 256.389 127.413C256.474 126.971 256.307 126.608 255.563 126.28L254.063 125.604C252.559 124.944 251.944 124.055 252.215 122.659C252.548 120.945 254.196 120.202 256.211 120.593C258.172 120.975 259.277 122.363 258.965 124.063L256.916 123.664C257.042 122.919 256.64 122.346 255.81 122.184C254.962 122.019 254.391 122.312 254.264 122.965C254.168 123.46 254.495 123.854 255.203 124.175L256.703 124.852C258.104 125.472 258.716 126.288 258.455 127.631C258.111 129.398 256.396 130.201 254.241 129.782C252.067 129.36 250.916 127.926 251.249 126.212Z" fill="white"/>
<path d="M114.32 125.771L111.036 125.132L112.967 115.196L116.197 115.824C119.165 116.401 120.782 118.798 120.205 121.766C119.63 124.721 117.261 126.343 114.32 125.771ZM115.86 117.042L114.074 116.695L112.626 124.143L114.467 124.501C116.68 124.932 118.359 123.775 118.803 121.494C119.252 119.185 118.128 117.483 115.86 117.042ZM123.601 127.746C121.622 127.362 120.54 125.668 120.946 123.579C121.355 121.476 122.971 120.279 124.922 120.658C126.833 121.03 127.827 122.592 127.439 124.585L127.346 125.066L122.148 124.069C121.969 125.504 122.559 126.431 123.837 126.68C124.84 126.875 125.58 126.591 125.95 125.864L127.159 126.099C126.549 127.478 125.264 128.07 123.601 127.746ZM124.711 121.744C123.584 121.525 122.739 122.059 122.344 123.209L126.22 123.962C126.436 122.849 125.852 121.966 124.711 121.744ZM128.774 121.607L129.763 121.799L129.972 120.727C130.293 119.078 131.33 118.581 132.554 118.819C132.801 118.867 133.087 118.937 133.34 119.029L133.124 120.142L132.546 120.03C131.708 119.867 131.405 120.25 131.264 120.978L131.055 122.05L132.649 122.36L132.438 123.446L130.844 123.136L129.749 128.77L128.457 128.519L129.552 122.885L128.563 122.692L128.774 121.607ZM134.792 121.122C134.325 121.032 134.015 120.572 134.106 120.105C134.2 119.624 134.656 119.327 135.124 119.418C135.591 119.509 135.904 119.955 135.81 120.436C135.719 120.903 135.26 121.213 134.792 121.122ZM132.544 129.314L133.85 122.594L135.142 122.845L133.836 129.565L132.544 129.314ZM137.003 130.181L135.711 129.93L137.018 123.209L138.186 123.437L138.123 124.494C138.698 123.807 139.639 123.519 140.587 123.704C142.36 124.048 142.959 125.292 142.625 127.01L141.826 131.119L140.535 130.867L141.277 127.047C141.542 125.686 141.017 125.014 140.027 124.821C138.818 124.586 137.949 125.316 137.695 126.621L137.003 130.181ZM145.864 123.275C145.397 123.184 145.087 122.725 145.178 122.257C145.272 121.776 145.728 121.48 146.196 121.571C146.663 121.662 146.976 122.108 146.882 122.589C146.791 123.056 146.332 123.366 145.864 123.275ZM143.616 131.466L144.922 124.746L146.214 124.997L144.908 131.718L143.616 131.466ZM148.075 132.333L146.783 132.082L148.09 125.362L149.258 125.589L149.195 126.647C149.77 125.96 150.711 125.672 151.659 125.856C153.432 126.201 154.031 127.444 153.697 129.162L152.898 133.271L151.607 133.02L152.349 129.2C152.614 127.839 152.089 127.166 151.099 126.974C149.89 126.739 149.021 127.469 148.767 128.774L148.075 132.333ZM154.948 130.004C155.317 128.108 156.829 126.862 158.78 127.241C159.866 127.452 160.608 128.11 160.871 129.031L161.189 127.909L162.343 128.133L161.09 134.579C160.679 136.695 159.111 137.788 157.05 137.387C155.222 137.032 154.172 135.758 154.256 134.006L155.548 134.257C155.52 135.279 156.15 136 157.277 136.219C158.541 136.465 159.526 135.801 159.775 134.523L160.037 133.176C159.445 133.874 158.474 134.17 157.416 133.964C155.506 133.593 154.582 131.887 154.948 130.004ZM156.246 130.228C156 131.492 156.591 132.634 157.855 132.88C159.161 133.134 160.139 132.354 160.396 131.035C160.647 129.743 160.059 128.659 158.74 128.403C157.448 128.151 156.486 128.991 156.246 130.228ZM166.489 133.888L167.725 134.129C167.592 134.816 168.034 135.33 168.886 135.495C169.793 135.672 170.387 135.402 170.508 134.784C170.596 134.33 170.429 134.013 169.763 133.698L168.635 133.193C167.495 132.672 167.047 131.972 167.239 130.982C167.479 129.745 168.676 129.165 170.16 129.454C171.631 129.739 172.433 130.751 172.212 132.034L170.975 131.794C171.078 131.115 170.707 130.601 169.924 130.449C169.113 130.291 168.59 130.56 168.47 131.179C168.382 131.632 168.653 131.999 169.281 132.292L170.406 132.81C171.494 133.307 171.955 133.939 171.76 134.942C171.512 136.22 170.255 136.817 168.661 136.507C167.08 136.2 166.24 135.166 166.489 133.888ZM171.454 140.002L171.659 138.944L172.525 139.112C173.144 139.233 173.657 139.233 174.139 138.442L174.498 137.842L173.167 130.238L174.527 130.502L175.426 136.296L178.471 131.269L179.804 131.528L175.029 139.143C174.351 140.209 173.585 140.559 172.554 140.359C172.128 140.276 171.781 140.151 171.454 140.002ZM179.265 136.372L180.502 136.613C180.368 137.3 180.81 137.814 181.662 137.979C182.569 138.156 183.164 137.886 183.284 137.268C183.372 136.814 183.206 136.497 182.539 136.182L181.411 135.677C180.272 135.156 179.823 134.456 180.015 133.466C180.256 132.229 181.453 131.649 182.937 131.938C184.407 132.223 185.209 133.235 184.988 134.518L183.751 134.278C183.855 133.599 183.484 133.085 182.701 132.933C181.89 132.775 181.367 133.044 181.246 133.663C181.158 134.116 181.429 134.483 182.057 134.776L183.183 135.294C184.27 135.791 184.732 136.423 184.537 137.426C184.288 138.704 183.031 139.301 181.437 138.991C179.857 138.684 179.016 137.65 179.265 136.372ZM187.492 139.997L186.2 139.746L187.295 134.111L185.976 133.855L186.187 132.769L187.507 133.026L187.915 130.923L189.207 131.174L188.798 133.277L190.118 133.533L189.907 134.619L188.587 134.363L187.492 139.997ZM192.771 141.195C190.792 140.81 189.709 139.116 190.115 137.027C190.524 134.925 192.141 133.727 194.092 134.106C196.002 134.478 196.996 136.04 196.609 138.033L196.515 138.514L191.318 137.518C191.139 138.952 191.729 139.879 193.007 140.128C194.01 140.323 194.75 140.039 195.119 139.312L196.329 139.547C195.718 140.926 194.434 141.518 192.771 141.195ZM193.881 135.192C192.754 134.973 191.908 135.507 191.514 136.657L195.389 137.411C195.606 136.298 195.022 135.414 193.881 135.192ZM198.644 142.165L197.352 141.914L198.658 135.194L199.813 135.418L199.765 136.322C200.232 135.756 201.032 135.456 201.98 135.64C203.025 135.843 203.665 136.51 203.846 137.415C204.325 136.638 205.237 136.273 206.282 136.476C207.821 136.776 208.568 137.919 208.266 139.472L207.411 143.87L206.147 143.624L206.941 139.542C207.146 138.484 206.673 137.765 205.766 137.588C204.79 137.399 204.011 137.96 203.802 139.032L203.027 143.018L201.749 142.769L202.546 138.674C202.751 137.616 202.286 136.926 201.379 136.75C200.404 136.56 199.627 137.108 199.418 138.18L198.644 142.165ZM218.125 138.922L217.895 140.103L217.318 139.991C216.095 139.753 215.195 140.349 214.944 141.64L214.252 145.2L212.96 144.949L214.264 138.242L215.473 138.477L215.358 139.51C215.769 138.863 216.533 138.527 217.454 138.706C217.688 138.751 217.875 138.816 218.125 138.922ZM220.645 146.614C218.667 146.229 217.584 144.536 217.99 142.447C218.399 140.344 220.015 139.146 221.967 139.526C223.877 139.897 224.871 141.46 224.483 143.452L224.39 143.933L219.192 142.937C219.013 144.371 219.603 145.299 220.881 145.547C221.885 145.742 222.624 145.458 222.994 144.732L224.203 144.967C223.593 146.346 222.308 146.937 220.645 146.614ZM221.755 140.612C220.629 140.392 219.783 140.927 219.388 142.077L223.264 142.83C223.48 141.717 222.896 140.833 221.755 140.612ZM225.449 143.84C225.85 141.778 227.34 140.571 229.264 140.945C230.322 141.15 231.149 141.81 231.41 142.817L231.755 141.629L232.909 141.853L231.018 151.583L229.74 151.334L230.539 147.225C229.925 147.962 228.943 148.242 227.871 148.033C225.892 147.648 225.051 145.887 225.449 143.84ZM226.744 144.149C226.477 145.523 227.054 146.662 228.373 146.918C229.693 147.175 230.696 146.343 230.963 144.969C231.236 143.567 230.614 142.434 229.295 142.177C227.976 141.921 227.014 142.761 226.744 144.149ZM239.418 143.119L240.696 143.367L239.39 150.087L238.235 149.863L238.295 148.819C237.774 149.445 236.788 149.752 235.798 149.56C234.231 149.255 233.558 148.026 233.878 146.377L234.691 142.199L235.982 142.451L235.253 146.202C234.972 147.645 235.484 148.315 236.473 148.508C237.655 148.737 238.448 148.107 238.729 146.664L239.418 143.119ZM243.512 142.26C243.045 142.169 242.735 141.71 242.826 141.242C242.92 140.761 243.377 140.465 243.844 140.556C244.311 140.647 244.624 141.093 244.53 141.574C244.439 142.041 243.98 142.351 243.512 142.26ZM241.264 150.452L242.57 143.731L243.862 143.983L242.556 150.703L241.264 150.452ZM249.596 145.04L249.366 146.222L248.789 146.11C247.566 145.872 246.666 146.467 246.415 147.759L245.723 151.319L244.431 151.067L245.735 144.361L246.944 144.596L246.829 145.629C247.24 144.982 248.004 144.645 248.925 144.824C249.159 144.87 249.346 144.935 249.596 145.04ZM252.117 152.733C250.138 152.348 249.055 150.654 249.461 148.565C249.87 146.463 251.486 145.265 253.438 145.645C255.348 146.016 256.342 147.578 255.955 149.571L255.861 150.052L250.664 149.056C250.485 150.49 251.075 151.418 252.353 151.666C253.356 151.861 254.096 151.577 254.465 150.85L255.674 151.085C255.064 152.464 253.78 153.056 252.117 152.733ZM253.227 146.73C252.1 146.511 251.254 147.046 250.86 148.195L254.735 148.949C254.951 147.836 254.367 146.952 253.227 146.73ZM257.989 153.703L256.697 153.452L258.004 146.732L259.158 146.957L259.111 147.86C259.578 147.295 260.378 146.994 261.326 147.178C262.37 147.381 263.011 148.048 263.192 148.953C263.671 148.176 264.583 147.812 265.627 148.015C267.167 148.314 267.914 149.457 267.612 151.01L266.757 155.408L265.493 155.162L266.286 151.081C266.492 150.022 266.019 149.303 265.112 149.127C264.136 148.937 263.356 149.498 263.148 150.57L262.373 154.556L261.095 154.307L261.891 150.212C262.097 149.154 261.632 148.464 260.725 148.288C259.749 148.098 258.973 148.646 258.764 149.718L257.989 153.703ZM271.415 156.485C269.437 156.1 268.354 154.406 268.76 152.318C269.169 150.215 270.785 149.017 272.737 149.397C274.647 149.768 275.641 151.331 275.253 153.323L275.16 153.804L269.963 152.808C269.784 154.242 270.373 155.17 271.651 155.418C272.655 155.613 273.394 155.329 273.764 154.603L274.973 154.838C274.363 156.216 273.078 156.808 271.415 156.485ZM272.525 150.482C271.399 150.263 270.553 150.798 270.158 151.948L274.034 152.701C274.25 151.588 273.666 150.704 272.525 150.482ZM277.288 157.456L275.996 157.204L277.303 150.484L278.471 150.711L278.408 151.769C278.984 151.082 279.924 150.794 280.872 150.978C282.645 151.323 283.245 152.566 282.911 154.284L282.112 158.393L280.82 158.142L281.563 154.322C281.827 152.961 281.302 152.289 280.312 152.096C279.103 151.861 278.234 152.591 277.98 153.896L277.288 157.456ZM285.797 159.11L284.506 158.859L285.601 153.224L284.282 152.968L284.493 151.882L285.812 152.139L286.221 150.036L287.513 150.287L287.104 152.39L288.423 152.646L288.212 153.732L286.893 153.475L285.797 159.11ZM288.106 157.534L289.343 157.774C289.209 158.461 289.651 158.975 290.503 159.141C291.41 159.317 292.005 159.047 292.125 158.429C292.213 157.976 292.047 157.658 291.38 157.343L290.252 156.838C289.112 156.317 288.664 155.617 288.856 154.627C289.097 153.39 290.293 152.81 291.778 153.099C293.248 153.385 294.05 154.396 293.829 155.68L292.592 155.439C292.695 154.76 292.325 154.246 291.541 154.094C290.731 153.936 290.208 154.205 290.087 154.824C289.999 155.277 290.27 155.644 290.898 155.937L292.024 156.455C293.111 156.952 293.573 157.584 293.378 158.587C293.129 159.865 291.872 160.462 290.278 160.152C288.698 159.845 287.857 158.812 288.106 157.534ZM295.286 161.126C294.75 161.022 294.382 160.494 294.483 159.971C294.587 159.435 295.126 159.084 295.662 159.188C296.185 159.29 296.553 159.818 296.448 160.354C296.347 160.876 295.808 161.227 295.286 161.126Z" fill="#FFDDDB"/>
</g>
<g clip-path="url(#clip1_2_36)">
<rect x="6.125" y="287.141" width="332" height="72" rx="20" transform="rotate(4.88 6.125 287.141)" fill="#FFE0E0"/>
<path d="M86.8887 326.147L85.5918 324.41C84.6132 324.868 83.4752 325.078 82.2377 324.973C78.4894 324.653 76.1441 321.652 76.4856 317.653C76.8255 313.671 79.6649 311.095 83.4133 311.415C87.1617 311.735 89.5428 314.739 89.2013 318.738C89.0405 320.622 88.3288 322.187 87.2055 323.283L88.4712 324.963L86.8887 326.147ZM86.7801 318.532C87.019 315.734 85.6282 313.827 83.225 313.621C80.8217 313.416 79.1277 315.06 78.8888 317.858C78.65 320.656 80.0408 322.563 82.444 322.768C83.0897 322.823 83.6743 322.747 84.2159 322.54L82.6431 320.437L84.2076 319.251L85.7803 321.355C86.3289 320.643 86.6821 319.679 86.7801 318.532ZM97.2193 317.111L99.4073 317.297L98.6509 326.157L96.6242 325.984L96.5639 324.787C95.9539 325.584 94.7571 326.06 93.5734 325.958C91.5288 325.784 90.4451 324.3 90.6304 322.13L91.1035 316.588L93.2916 316.775L92.8842 321.546C92.7403 323.232 93.3457 323.97 94.5653 324.074C95.9462 324.192 96.6787 323.442 96.8227 321.756L97.2193 317.111ZM103.527 326.808C101.644 326.648 100.59 325.456 100.732 323.788C100.871 322.156 102.142 321.234 104.255 321.252L106.926 321.281L106.943 321.084C107.045 319.882 106.369 319.337 105.257 319.242C103.966 319.132 103.203 319.609 103.123 320.541L101.258 320.382C101.422 318.463 103.107 317.342 105.51 317.547C107.896 317.751 109.256 319.168 109.046 321.625L108.587 327.005L106.668 326.842L106.618 325.519C106.163 326.401 104.908 326.926 103.527 326.808ZM104.386 325.22C105.731 325.334 106.66 324.601 106.777 323.238L106.817 322.772L104.957 322.757C103.583 322.766 103.025 323.17 102.964 323.888C102.895 324.695 103.399 325.135 104.386 325.22ZM112.942 327.377L110.772 327.192L111.911 313.849L114.082 314.034L112.942 327.377ZM117.24 317.031C116.486 316.967 115.945 316.325 116.008 315.589C116.071 314.854 116.711 314.331 117.465 314.395C118.182 314.456 118.725 315.081 118.662 315.816C118.599 316.551 117.957 317.093 117.24 317.031ZM115.238 327.573L115.994 318.714L118.182 318.9L117.426 327.76L115.238 327.573ZM122.699 328.21L120.511 328.024L121.111 320.993L119.408 320.848L119.564 319.018L121.268 319.164L121.503 316.402L123.692 316.589L123.456 319.351L125.177 319.498L125.021 321.327L123.3 321.18L122.699 328.21ZM124.659 332.515L124.816 330.685L126.125 330.797C126.986 330.871 127.541 330.719 128.006 329.711L128.314 329.069L125.533 319.528L127.847 319.726L129.573 326.376L132.528 320.125L134.788 320.318L129.523 330.78C128.718 332.373 127.727 332.975 126.275 332.851C125.665 332.799 125.133 332.682 124.659 332.515ZM141.561 329.821L139.175 329.617L145.03 316.911L147.379 317.112L150.994 330.626L148.573 330.419L147.774 327.298L142.878 326.88L141.561 329.821ZM145.575 320.896L143.725 325.001L147.276 325.305L146.13 320.943C146.052 320.593 145.96 320.188 145.947 319.916C145.872 320.162 145.731 320.548 145.575 320.896ZM151.864 327.991L153.944 328.168C153.896 328.941 154.429 329.474 155.433 329.56C156.455 329.647 157.047 329.282 157.102 328.636C157.14 328.188 156.934 327.845 156.161 327.599L154.597 327.086C153.031 326.591 152.324 325.772 152.445 324.355C152.594 322.615 154.153 321.701 156.198 321.875C158.188 322.045 159.436 323.308 159.306 325.031L157.226 324.853C157.272 324.099 156.812 323.571 155.969 323.499C155.108 323.426 154.572 323.778 154.515 324.441C154.472 324.943 154.839 325.3 155.577 325.544L157.141 326.057C158.601 326.524 159.296 327.27 159.18 328.633C159.026 330.427 157.407 331.409 155.219 331.222C153.013 331.033 151.715 329.73 151.864 327.991ZM160.166 328.699L162.246 328.877C162.198 329.65 162.731 330.183 163.735 330.269C164.757 330.356 165.348 329.991 165.404 329.345C165.442 328.897 165.236 328.554 164.462 328.307L162.898 327.795C161.333 327.3 160.626 326.48 160.747 325.064C160.895 323.324 162.455 322.409 164.5 322.584C166.49 322.754 167.737 324.017 167.608 325.74L165.528 325.562C165.574 324.807 165.113 324.28 164.27 324.208C163.41 324.135 162.874 324.486 162.817 325.15C162.774 325.652 163.141 326.009 163.879 326.252L165.443 326.765C166.903 327.233 167.598 327.979 167.481 329.342C167.328 331.136 165.709 332.117 163.521 331.93C161.315 331.742 160.017 330.439 160.166 328.699ZM175.684 323.81L177.872 323.997L177.115 332.856L175.089 332.683L175.028 331.486C174.418 332.283 173.222 332.759 172.038 332.658C169.993 332.483 168.91 331 169.095 328.829L169.568 323.288L171.756 323.474L171.349 328.245C171.205 329.931 171.81 330.669 173.03 330.773C174.411 330.891 175.143 330.141 175.287 328.455L175.684 323.81ZM185.695 324.628L185.522 326.655L184.714 326.586C183.136 326.451 182.078 327.21 181.931 328.932L181.563 333.236L179.375 333.049L180.13 324.207L182.193 324.384L182.208 325.686C182.66 324.839 183.553 324.319 184.737 324.42C185.042 324.446 185.344 324.508 185.695 324.628ZM188.682 334.079C186.799 333.918 185.745 332.726 185.887 331.058C186.027 329.426 187.297 328.505 189.41 328.522L192.081 328.552L192.098 328.355C192.2 327.153 191.524 326.607 190.412 326.512C189.121 326.402 188.358 326.879 188.278 327.812L186.413 327.652C186.577 325.733 188.262 324.613 190.665 324.818C193.051 325.022 194.411 326.438 194.201 328.895L193.742 334.276L191.823 334.112L191.773 332.789C191.319 333.672 190.063 334.197 188.682 334.079ZM189.541 332.49C190.886 332.605 191.815 331.871 191.932 330.508L191.972 330.042L190.112 330.028C188.738 330.037 188.18 330.441 188.119 331.158C188.05 331.965 188.554 332.406 189.541 332.49ZM198.079 334.646L195.891 334.459L196.648 325.6L198.674 325.773L198.756 326.936C199.388 326.087 200.509 325.658 201.71 325.761C203.934 325.951 204.964 327.43 204.768 329.725L204.303 335.178L202.115 334.991L202.536 330.059C202.663 328.57 201.989 327.79 200.859 327.693C199.514 327.579 198.609 328.441 198.487 329.876L198.079 334.646ZM206.312 330.869C206.547 328.125 208.523 326.343 211.142 326.566C213.563 326.773 215.098 328.259 215.149 330.413L212.961 330.226C212.796 329.2 212.105 328.617 211.065 328.529C209.666 328.409 208.643 329.388 208.5 331.056C208.358 332.724 209.13 333.837 210.529 333.957C211.623 334.05 212.44 333.578 212.756 332.629L214.962 332.818C214.517 334.857 212.674 336.127 210.36 335.93C207.67 335.7 206.072 333.685 206.312 330.869ZM220.257 336.775C217.62 336.549 215.937 334.473 216.171 331.729C216.409 328.949 218.384 327.184 220.984 327.406C223.639 327.633 225.173 329.553 224.937 332.315L224.881 332.978L218.207 332.426C218.236 334.001 218.993 334.86 220.446 334.984C221.647 335.087 222.476 334.688 222.799 333.866L224.826 334.039C224.284 335.944 222.57 336.972 220.257 336.775ZM220.849 329.201C219.558 329.091 218.709 329.723 218.381 331.032L222.828 331.412C222.933 330.192 222.158 329.313 220.849 329.201Z" fill="#16063E"/>
<path d="M80.5942 347.696L74.4426 347.171L75.3036 337.085L81.4553 337.611L81.3481 338.866L76.5635 338.458L76.2943 341.61L80.6046 341.978L80.501 343.192L76.1907 342.824L75.918 346.018L80.7026 346.427L80.5942 347.696ZM83.6631 347.958L82.3519 347.846L82.9343 341.025L84.12 341.126L84.1701 342.184C84.6693 341.44 85.5734 341.053 86.5359 341.136C88.3354 341.289 89.0643 342.461 88.9154 344.205L88.5593 348.376L87.2481 348.264L87.5792 344.386C87.6971 343.005 87.1031 342.392 86.0987 342.307C84.8712 342.202 84.0847 343.02 83.9716 344.345L83.6631 347.958ZM89.9049 346.496L91.1603 346.603C91.1008 347.3 91.5951 347.764 92.4599 347.838C93.3806 347.916 93.9428 347.585 93.9964 346.957C94.0357 346.497 93.8364 346.199 93.1404 345.957L91.9646 345.575C90.776 345.179 90.2553 344.53 90.3411 343.526C90.4483 342.27 91.5763 341.566 93.0828 341.695C94.5754 341.822 95.4804 342.742 95.3975 344.042L94.1421 343.935C94.1725 343.249 93.7491 342.777 92.954 342.709C92.131 342.639 91.6397 342.962 91.5861 343.59C91.5468 344.05 91.8554 344.386 92.5107 344.61L93.6853 345.006C94.8193 345.384 95.3459 345.963 95.259 346.981C95.1482 348.278 93.962 349.006 92.3439 348.868C90.7398 348.731 89.7941 347.793 89.9049 346.496ZM101.844 342.639L103.141 342.75L102.558 349.571L101.387 349.471L101.335 348.427C100.884 349.105 99.9357 349.516 98.9313 349.43C97.3411 349.294 96.5401 348.144 96.683 346.47L97.045 342.23L98.3563 342.341L98.0311 346.15C97.9061 347.614 98.4862 348.226 99.4905 348.312C100.69 348.414 101.411 347.703 101.536 346.238L101.844 342.639ZM108.954 343.19L108.851 344.39L108.266 344.34C107.024 344.234 106.193 344.921 106.081 346.233L105.772 349.846L104.461 349.734L105.042 342.926L106.27 343.031L106.265 344.071C106.605 343.383 107.329 342.967 108.264 343.047C108.501 343.067 108.694 343.112 108.954 343.19ZM110.959 341.788C110.484 341.747 110.127 341.323 110.168 340.849C110.209 340.361 110.632 340.017 111.106 340.058C111.581 340.098 111.939 340.508 111.897 340.997C111.857 341.471 111.433 341.828 110.959 341.788ZM109.597 350.172L110.179 343.351L111.49 343.463L110.908 350.284L109.597 350.172ZM114.123 350.558L112.811 350.447L113.394 343.625L114.579 343.727L114.63 344.785C115.129 344.04 116.033 343.654 116.995 343.736C118.795 343.89 119.524 345.062 119.375 346.806L119.019 350.977L117.708 350.865L118.039 346.987C118.157 345.606 117.563 344.993 116.558 344.907C115.331 344.802 114.544 345.62 114.431 346.946L114.123 350.558ZM120.709 347.51C120.873 345.585 122.243 344.184 124.224 344.353C125.326 344.447 126.134 345.022 126.494 345.91L126.69 344.761L127.862 344.861L127.303 351.403C127.12 353.551 125.678 354.805 123.586 354.626C121.73 354.468 120.55 353.313 120.447 351.562L121.758 351.674C121.84 352.693 122.543 353.343 123.687 353.441C124.97 353.55 125.879 352.785 125.989 351.487L126.106 350.12C125.592 350.877 124.659 351.275 123.584 351.184C121.646 351.018 120.545 349.421 120.709 347.51ZM122.022 347.594C121.913 348.877 122.622 349.949 123.905 350.059C125.231 350.172 126.121 349.293 126.235 347.953C126.347 346.642 125.647 345.627 124.308 345.513C122.996 345.401 122.129 346.338 122.022 347.594ZM132.597 350.141L133.853 350.248C133.793 350.945 134.287 351.409 135.152 351.483C136.073 351.561 136.635 351.23 136.689 350.602C136.728 350.142 136.529 349.844 135.833 349.602L134.657 349.22C133.468 348.824 132.948 348.175 133.033 347.171C133.141 345.916 134.269 345.211 135.775 345.34C137.268 345.467 138.173 346.387 138.09 347.687L136.834 347.58C136.865 346.894 136.441 346.422 135.646 346.354C134.823 346.284 134.332 346.607 134.278 347.235C134.239 347.695 134.548 348.031 135.203 348.255L136.378 348.651C137.512 349.029 138.038 349.608 137.951 350.626C137.841 351.923 136.654 352.651 135.036 352.513C133.432 352.376 132.486 351.438 132.597 350.141ZM139.084 349.247C139.264 347.141 140.897 345.791 142.947 345.966C144.984 346.14 146.364 347.747 146.184 349.853C146.004 351.96 144.372 353.31 142.335 353.136C140.285 352.961 138.904 351.354 139.084 349.247ZM140.409 349.36C140.288 350.783 141.11 351.851 142.435 351.964C143.746 352.076 144.752 351.164 144.873 349.741C144.995 348.319 144.158 347.25 142.847 347.138C141.522 347.025 140.531 347.938 140.409 349.36ZM147.16 346.508L148.164 346.594L148.257 345.506C148.4 343.832 149.379 343.227 150.621 343.333C150.872 343.355 151.164 343.394 151.425 343.458L151.329 344.588L150.743 344.538C149.892 344.465 149.632 344.879 149.569 345.618L149.476 346.706L151.094 346.844L151 347.946L149.382 347.808L148.893 353.527L147.582 353.415L148.07 347.696L147.066 347.61L147.16 346.508ZM153.778 353.944L152.467 353.832L152.955 348.113L151.616 347.999L151.71 346.897L153.049 347.011L153.231 344.877L154.543 344.989L154.36 347.123L155.699 347.237L155.605 348.339L154.266 348.225L153.778 353.944ZM157.759 354.284L156.109 347.272L157.462 347.388L158.289 351.027C158.4 351.543 158.495 352.071 158.57 352.681C158.733 352.091 158.963 351.535 159.154 351.101L160.601 347.656L161.94 347.77L162.767 351.41C162.85 351.754 163.005 352.568 163.075 353.066C163.233 352.531 163.399 352.068 163.646 351.485L165.092 348.039L166.459 348.156L163.547 354.778L162.306 354.672L161.432 350.916C161.267 350.214 161.173 349.672 161.136 349.289C161.037 349.618 160.874 350.054 160.552 350.855L159.056 354.395L157.759 354.284ZM168.668 355.384C167.203 355.259 166.409 354.362 166.515 353.121C166.622 351.865 167.623 351.164 169.238 351.175L171.401 351.191L171.417 350.996C171.515 349.852 170.866 349.389 169.945 349.311C168.843 349.217 168.174 349.651 168.104 350.474L166.96 350.377C167.081 348.954 168.333 348.119 170.091 348.269C171.778 348.413 172.846 349.404 172.689 351.245L172.323 355.528L171.207 355.432L171.162 354.318C170.746 355.07 169.77 355.478 168.668 355.384ZM169.132 354.398C170.373 354.504 171.196 353.759 171.305 352.476L171.336 352.113L169.58 352.104C168.413 352.117 167.901 352.522 167.844 353.192C167.782 353.917 168.281 354.325 169.132 354.398ZM178.632 349.139L178.53 350.339L177.944 350.289C176.702 350.183 175.871 350.87 175.759 352.182L175.45 355.795L174.139 355.683L174.72 348.875L175.948 348.98L175.943 350.02C176.283 349.332 177.007 348.916 177.942 348.996C178.179 349.016 178.372 349.061 178.632 349.139ZM181.958 356.519C179.95 356.347 178.693 354.779 178.874 352.658C179.056 350.524 180.535 349.161 182.516 349.33C184.455 349.496 185.61 350.943 185.437 352.966L185.396 353.454L180.122 353.018C180.097 354.463 180.782 355.322 182.079 355.433C183.098 355.52 183.803 355.159 184.093 354.397L185.32 354.502C184.86 355.938 183.646 356.663 181.958 356.519ZM182.422 350.432C181.278 350.335 180.494 350.956 180.225 352.141L184.158 352.477C184.255 351.347 183.58 350.531 182.422 350.432ZM190.253 353.574C190.432 351.481 191.784 350.122 193.737 350.288C194.811 350.38 195.704 350.948 196.071 351.921L196.287 350.703L197.459 350.803L196.616 360.679L195.318 360.568L195.675 356.397C195.143 357.195 194.197 357.578 193.109 357.485C191.1 357.313 190.076 355.652 190.253 353.574ZM191.574 353.743C191.454 355.138 192.15 356.209 193.489 356.323C194.828 356.437 195.737 355.503 195.856 354.108C195.977 352.686 195.239 351.625 193.9 351.511C192.561 351.396 191.694 352.334 191.574 353.743ZM204.065 351.367L205.363 351.478L204.78 358.299L203.609 358.199L203.557 357.155C203.106 357.833 202.158 358.243 201.153 358.158C199.563 358.022 198.762 356.872 198.905 355.198L199.267 350.957L200.578 351.069L200.253 354.877C200.128 356.342 200.708 356.953 201.712 357.039C202.912 357.142 203.633 356.43 203.758 354.966L204.065 351.367ZM208.663 358.799C207.199 358.674 206.404 357.777 206.51 356.535C206.617 355.28 207.618 354.579 209.233 354.59L211.396 354.606L211.412 354.411C211.51 353.267 210.861 352.804 209.941 352.725C208.839 352.631 208.169 353.066 208.099 353.889L206.955 353.791C207.076 352.369 208.328 351.534 210.086 351.684C211.773 351.828 212.841 352.819 212.684 354.66L212.318 358.942L211.202 358.847L211.157 357.733C210.742 358.485 209.765 358.893 208.663 358.799ZM209.127 357.813C210.368 357.919 211.191 357.174 211.3 355.891L211.331 355.528L209.576 355.519C208.408 355.531 207.896 355.937 207.839 356.607C207.777 357.332 208.276 357.74 209.127 357.813ZM215.473 359.212L214.162 359.1L215.039 348.833L216.35 348.945L215.473 359.212ZM218.766 350.992C218.291 350.951 217.934 350.528 217.975 350.053C218.016 349.565 218.439 349.222 218.913 349.262C219.388 349.303 219.746 349.713 219.704 350.201C219.664 350.675 219.24 351.032 218.766 350.992ZM217.404 359.376L217.986 352.555L219.297 352.667L218.715 359.488L217.404 359.376ZM222.543 359.815L221.232 359.703L221.72 353.984L220.381 353.87L220.475 352.768L221.815 352.882L221.997 350.748L223.308 350.86L223.126 352.994L224.465 353.108L224.371 354.21L223.032 354.096L222.543 359.815ZM224.143 363.029L224.235 361.955L225.113 362.03C225.741 362.084 226.252 362.029 226.646 361.191L226.939 360.556L224.805 353.137L226.186 353.255L227.697 358.92L230.189 353.597L231.542 353.713L227.607 361.793C227.046 362.926 226.321 363.355 225.275 363.266C224.842 363.229 224.484 363.142 224.143 363.029ZM231.811 360.775C231.267 360.729 230.845 360.243 230.89 359.713C230.936 359.169 231.435 358.762 231.979 358.808C232.509 358.854 232.931 359.339 232.885 359.883C232.839 360.413 232.341 360.82 231.811 360.775Z" fill="#6F697E"/>
<path d="M33.7527 303.842C38.4471 302.748 43.3674 303.168 47.8084 305.042C52.2494 306.916 55.9831 310.148 58.4743 314.275C60.9656 318.402 62.0865 323.211 61.6765 328.014C61.2664 332.816 59.3464 337.366 56.1917 341.011C53.0369 344.655 48.8094 347.207 44.115 348.301C39.4206 349.396 34.5003 348.975 30.0593 347.101C25.6183 345.227 21.8846 341.995 19.3934 337.869C16.9021 333.742 15.7812 328.933 16.1912 324.13C16.6013 319.327 18.5213 314.778 21.676 311.133C24.8307 307.489 29.0583 304.936 33.7527 303.842Z" fill="white"/>
<path d="M38.9076 326.336L37.6163 326.226L37.7158 325.06L41.6941 321.841L35.8653 321.343L35.9985 319.783L44.0512 320.47L43.9303 321.887L40.0898 324.973C42.2728 325.431 43.8136 327.062 43.6146 329.393C43.391 332.012 41.2758 333.511 38.6394 333.286C36.0926 333.069 34.3965 331.352 34.6262 328.662L36.3659 328.811C36.2219 330.496 37.1779 331.572 38.81 331.711C40.4959 331.855 41.6817 330.872 41.8242 329.204C41.9574 327.644 40.9701 326.512 38.9076 326.336Z" fill="#16063E"/>
</g>
<g clip-path="url(#clip2_2_36)">
<rect x="13.3047" y="495.527" width="332" height="72" rx="20" transform="rotate(-10 13.3047 495.527)" fill="#3C8369"/>
<path d="M95.3657 507.929L92.5118 508.432L93.2994 512.899L91.0304 513.299L88.7456 500.341L93.8686 499.438C96.4744 498.978 98.4584 500.383 98.9054 502.918C99.3461 505.417 97.9538 507.472 95.3657 507.929ZM93.7817 501.537L91.3709 501.962L92.1554 506.411L94.5308 505.992C96.0907 505.717 96.777 504.737 96.5269 503.319C96.2769 501.901 95.2885 501.271 93.7817 501.537ZM105.978 501.598L106.331 503.601L105.533 503.742C103.973 504.017 103.145 505.022 103.445 506.723L104.195 510.978L102.033 511.359L100.492 502.62L102.53 502.26L102.88 503.515C103.099 502.581 103.829 501.849 104.999 501.642C105.3 501.589 105.608 501.572 105.978 501.598ZM107.408 505.878C106.927 503.148 108.563 500.923 111.275 500.444C113.988 499.966 116.287 501.498 116.768 504.228C117.249 506.958 115.613 509.184 112.901 509.662C110.189 510.14 107.89 508.608 107.408 505.878ZM109.571 505.497C109.852 507.092 111.071 507.992 112.56 507.73C114.049 507.467 114.887 506.205 114.605 504.609C114.324 503.014 113.105 502.114 111.616 502.376C110.127 502.639 109.29 503.902 109.571 505.497ZM118.485 497.619C117.758 497.748 117.07 497.266 116.942 496.539C116.814 495.812 117.299 495.142 118.026 495.014C118.735 494.889 119.437 495.35 119.566 496.076C119.694 496.803 119.194 497.494 118.485 497.619ZM117.891 512.803L117.908 510.826C118.225 510.862 118.405 510.848 118.671 510.801C119.415 510.67 119.589 510.201 119.432 509.315L117.713 499.565L119.876 499.184L121.639 509.181C121.967 511.043 121.116 512.436 119.219 512.77C118.811 512.842 118.486 512.863 117.891 512.803ZM127.613 507.086C125.007 507.546 122.846 505.971 122.368 503.259C121.884 500.511 123.34 498.299 125.91 497.846C128.534 497.383 130.509 498.844 130.991 501.574L131.106 502.23L124.515 503.41C124.947 504.924 125.9 505.561 127.335 505.307C128.523 505.098 129.222 504.5 129.323 503.623L131.326 503.269C131.291 505.25 129.899 506.683 127.613 507.086ZM126.24 499.615C124.964 499.84 124.306 500.669 124.325 502.018L128.721 501.243C128.508 500.038 127.534 499.387 126.24 499.615ZM132.232 501.501C131.754 498.789 133.207 496.559 135.795 496.103C138.188 495.681 140.053 496.723 140.656 498.791L138.493 499.173C138.07 498.224 137.253 497.838 136.224 498.019C134.842 498.263 134.104 499.471 134.395 501.12C134.686 502.768 135.718 503.647 137.101 503.403C138.182 503.212 138.85 502.546 138.912 501.548L141.092 501.164C141.186 503.249 139.731 504.949 137.444 505.353C134.785 505.822 132.723 504.284 132.232 501.501ZM146.246 503.563L144.083 503.944L142.858 496.996L141.174 497.293L140.855 495.484L142.539 495.188L142.058 492.458L144.22 492.076L144.702 494.806L146.404 494.506L146.722 496.314L145.021 496.614L146.246 503.563ZM156.587 501.74L154.389 502.127L152.104 489.169L154.302 488.782L160.305 498.361L162.669 487.306L164.903 486.912L167.188 499.871L164.989 500.258L164.286 496.27C163.827 493.664 163.692 492.902 163.654 491.958L161.816 500.818L159.725 501.186L154.989 493.504C155.25 494.262 155.484 495.482 155.768 497.095L156.587 501.74ZM172.383 499.192C170.522 499.52 169.196 498.639 168.906 496.99C168.621 495.377 169.613 494.161 171.659 493.635L174.248 492.978L174.214 492.783C174.004 491.595 173.211 491.242 172.112 491.435C170.835 491.66 170.22 492.317 170.383 493.239L168.539 493.564C168.205 491.667 169.546 490.151 171.921 489.733C174.279 489.317 175.957 490.337 176.386 492.765L177.323 498.083L175.427 498.418L175.039 497.152C174.826 498.122 173.748 498.951 172.383 499.192ZM172.804 497.436C174.134 497.202 174.844 496.254 174.607 494.907L174.525 494.446L172.724 494.91C171.399 495.271 170.963 495.805 171.088 496.514C171.229 497.312 171.829 497.608 172.804 497.436ZM181.611 497.327L179.448 497.709L177.904 488.952L179.907 488.599L180.284 489.702C180.677 488.719 181.65 488.017 182.838 487.808C185.036 487.42 186.411 488.585 186.811 490.854L187.762 496.243L185.599 496.624L184.739 491.749C184.48 490.278 183.628 489.697 182.511 489.894C181.182 490.128 180.529 491.194 180.779 492.612L181.611 497.327ZM192.533 495.639C190.672 495.967 189.346 495.086 189.056 493.437C188.771 491.824 189.763 490.608 191.809 490.082L194.398 489.425L194.364 489.23C194.154 488.042 193.361 487.689 192.262 487.882C190.986 488.107 190.37 488.764 190.533 489.686L188.689 490.011C188.355 488.114 189.696 486.598 192.071 486.18C194.429 485.764 196.108 486.784 196.536 489.212L197.473 494.53L195.577 494.865L195.189 493.599C194.976 494.569 193.898 495.398 192.533 495.639ZM192.954 493.883C194.284 493.649 194.994 492.701 194.757 491.354L194.675 490.893L192.875 491.357C191.549 491.718 191.113 492.252 191.238 492.961C191.379 493.759 191.979 494.055 192.954 493.883ZM198.295 489.67C197.845 487.117 199.174 484.909 201.673 484.468C202.985 484.237 204.11 484.605 204.79 485.454L204.701 484.227L206.704 483.873L208.17 492.187C208.686 495.112 207.253 497.247 204.417 497.747C201.9 498.191 199.927 497.059 199.249 494.766L201.411 494.384C201.753 495.494 202.74 496.014 204.07 495.78C205.559 495.517 206.351 494.409 206.094 492.955L205.838 491.502C205.432 492.414 204.442 493.119 203.183 493.341C200.701 493.778 198.742 492.205 198.295 489.67ZM200.466 489.232C200.726 490.703 201.859 491.637 203.277 491.387C204.766 491.124 205.503 489.916 205.235 488.391C204.972 486.902 203.887 486.034 202.38 486.299C200.944 486.552 200.213 487.796 200.466 489.232ZM214.445 491.775C211.839 492.235 209.679 490.66 209.201 487.948C208.716 485.2 210.172 482.988 212.742 482.535C215.366 482.072 217.342 483.533 217.823 486.263L217.939 486.919L211.347 488.099C211.779 489.613 212.732 490.25 214.168 489.997C215.355 489.787 216.054 489.189 216.155 488.312L218.159 487.959C218.124 489.939 216.732 491.372 214.445 491.775ZM213.073 484.304C211.796 484.529 211.138 485.358 211.157 486.707L215.553 485.932C215.341 484.727 214.367 484.076 213.073 484.304ZM222.517 490.115L220.354 490.496L218.81 481.739L220.795 481.389L221.154 482.386C221.469 481.581 222.255 480.857 223.514 480.635C224.843 480.401 225.881 480.894 226.52 481.823C226.785 480.735 227.697 479.898 229.027 479.663C231.154 479.288 232.549 480.358 232.905 482.379L233.915 488.105L231.77 488.483L230.86 483.325C230.638 482.066 229.849 481.529 228.821 481.71C227.775 481.895 227.096 482.709 227.349 484.145L228.225 489.108L226.062 489.489L225.149 484.313C224.934 483.09 224.162 482.55 223.134 482.731C222.106 482.912 221.391 483.733 221.641 485.151L222.517 490.115ZM239.996 487.27C237.39 487.73 235.23 486.155 234.752 483.443C234.267 480.695 235.723 478.483 238.294 478.029C240.917 477.567 242.893 479.028 243.374 481.758L243.49 482.414L236.899 483.594C237.33 485.108 238.283 485.744 239.719 485.491C240.907 485.282 241.605 484.683 241.707 483.806L243.71 483.453C243.675 485.433 242.283 486.867 239.996 487.27ZM238.624 479.799C237.348 480.024 236.689 480.853 236.708 482.202L241.104 481.427C240.892 480.221 239.918 479.571 238.624 479.799ZM248.068 485.609L245.905 485.991L244.361 477.234L246.364 476.88L246.741 477.984C247.135 477 248.108 476.299 249.295 476.089C251.493 475.702 252.869 476.867 253.269 479.136L254.219 484.525L252.056 484.906L251.197 480.031C250.937 478.56 250.085 477.979 248.969 478.176C247.639 478.41 246.986 479.476 247.236 480.894L248.068 485.609ZM259.322 483.625L257.159 484.006L255.934 477.057L254.25 477.354L253.931 475.546L255.615 475.249L255.134 472.519L257.296 472.138L257.778 474.868L259.479 474.568L259.798 476.376L258.097 476.676L259.322 483.625Z" fill="white"/>
<path d="M102.856 529.428C103.39 532.462 101.779 534.935 98.953 535.433C96.1404 535.929 93.8082 534.151 93.2734 531.118C92.7409 528.099 94.3357 525.614 97.1483 525.118C99.9747 524.62 102.321 526.395 102.856 529.428ZM101.435 529.679C101.027 527.362 99.406 526.07 97.3793 526.428C95.3525 526.785 94.285 528.551 94.6934 530.868C95.1019 533.184 96.7115 534.492 98.7382 534.135C100.765 533.777 101.841 531.981 101.435 529.679ZM107.132 533.82L103.227 527.557L104.606 527.314L106.745 530.818C107.091 531.411 107.384 531.942 107.567 532.336C107.599 531.876 107.718 531.258 107.848 530.624L108.687 526.595L110.038 526.356L108.414 533.594L107.132 533.82ZM114.887 532.624C112.901 532.974 111.283 531.781 110.914 529.685C110.542 527.575 111.622 525.878 113.579 525.533C115.496 525.195 116.984 526.297 117.336 528.297L117.421 528.779L112.212 529.712C112.559 531.115 113.442 531.77 114.725 531.543C115.731 531.366 116.32 530.836 116.404 530.025L117.618 529.811C117.542 531.317 116.555 532.33 114.887 532.624ZM113.771 526.622C112.641 526.822 112.043 527.624 112.087 528.838L115.975 528.153C115.778 527.036 114.916 526.42 113.771 526.622ZM122.083 524.176L122.292 525.361L121.713 525.464C120.486 525.68 119.859 526.558 120.087 527.854L120.717 531.425L119.421 531.654L118.235 524.925L119.448 524.711L119.71 525.717C119.862 524.965 120.455 524.377 121.379 524.215C121.613 524.173 121.811 524.167 122.083 524.176ZM123.6 528.898L124.841 528.679C124.963 529.369 125.559 529.69 126.414 529.539C127.324 529.379 127.783 528.914 127.673 528.294C127.593 527.839 127.324 527.602 126.589 527.547L125.355 527.48C124.104 527.402 123.434 526.909 123.259 525.916C123.04 524.675 123.95 523.704 125.439 523.442C126.914 523.182 128.025 523.839 128.279 525.116L127.038 525.335C126.891 524.664 126.361 524.317 125.575 524.456C124.761 524.599 124.37 525.038 124.479 525.658C124.559 526.113 124.944 526.358 125.635 526.407L126.871 526.487C128.064 526.561 128.722 526.986 128.899 527.992C129.125 529.274 128.166 530.282 126.567 530.564C124.981 530.844 123.826 530.18 123.6 528.898ZM133.615 529.321C131.63 529.671 130.012 528.478 129.643 526.383C129.271 524.273 130.35 522.576 132.308 522.231C134.225 521.893 135.713 522.995 136.065 524.994L136.15 525.477L130.941 526.41C131.288 527.813 132.171 528.467 133.453 528.241C134.46 528.064 135.049 527.533 135.133 526.722L136.346 526.508C136.271 528.014 135.284 529.027 133.615 529.321ZM132.5 523.32C131.37 523.519 130.772 524.321 130.815 525.536L134.703 524.85C134.506 523.734 133.644 523.118 132.5 523.32ZM141.088 528.004C139.102 528.354 137.485 527.161 137.115 525.065C136.743 522.955 137.823 521.258 139.781 520.913C141.697 520.575 143.185 521.677 143.538 523.677L143.623 524.159L138.414 525.092C138.761 526.495 139.644 527.15 140.926 526.923C141.932 526.746 142.521 526.216 142.606 525.405L143.819 525.191C143.743 526.697 142.756 527.71 141.088 528.004ZM139.973 522.002C138.842 522.202 138.244 523.004 138.288 524.218L142.176 523.533C141.979 522.416 141.117 521.8 139.973 522.002ZM144.786 518.58C144.317 518.663 143.863 518.345 143.78 517.876C143.695 517.394 144.015 516.954 144.484 516.871C144.953 516.788 145.405 517.092 145.49 517.575C145.572 518.044 145.254 518.498 144.786 518.58ZM145.622 527.034L144.433 520.292L145.729 520.063L146.918 526.805L145.622 527.034ZM150.096 526.245L148.8 526.473L147.611 519.731L148.783 519.525L149.103 520.534C149.394 519.687 150.169 519.081 151.12 518.914C152.899 518.6 153.904 519.546 154.208 521.269L154.935 525.392L153.639 525.62L152.963 521.787C152.723 520.422 151.991 519.983 150.998 520.158C149.785 520.372 149.235 521.364 149.466 522.674L150.096 526.245ZM155.678 521.607C155.342 519.704 156.307 517.999 158.265 517.654C159.354 517.462 160.282 517.81 160.858 518.575L160.753 517.414L161.911 517.21L163.051 523.676C163.426 525.799 162.354 527.381 160.286 527.746C158.452 528.069 157.015 527.257 156.466 525.591L157.762 525.362C158.102 526.326 158.949 526.774 160.079 526.574C161.348 526.351 162.029 525.377 161.803 524.095L161.565 522.744C161.262 523.608 160.462 524.232 159.401 524.419C157.484 524.757 156.011 523.496 155.678 521.607ZM156.969 521.351C157.193 522.619 158.154 523.473 159.422 523.25C160.732 523.019 161.366 521.94 161.133 520.617C160.904 519.321 159.967 518.519 158.643 518.753C157.347 518.981 156.75 520.11 156.969 521.351ZM167.843 521.097L169.084 520.878C169.206 521.567 169.803 521.889 170.658 521.738C171.567 521.577 172.026 521.113 171.916 520.492C171.836 520.037 171.567 519.8 170.832 519.745L169.598 519.679C168.347 519.601 167.677 519.107 167.502 518.115C167.284 516.874 168.193 515.903 169.682 515.641C171.157 515.38 172.268 516.038 172.522 517.315L171.281 517.534C171.134 516.863 170.604 516.516 169.818 516.654C169.005 516.798 168.613 517.237 168.722 517.857C168.802 518.312 169.187 518.557 169.878 518.606L171.115 518.686C172.308 518.76 172.965 519.184 173.143 520.191C173.369 521.473 172.409 522.481 170.81 522.763C169.224 523.043 168.07 522.379 167.843 521.097ZM173.883 518.568C173.516 516.486 174.748 514.762 176.774 514.404C178.787 514.049 180.534 515.248 180.901 517.33C181.268 519.412 180.037 521.136 178.024 521.491C175.997 521.848 174.25 520.649 173.883 518.568ZM175.193 518.337C175.441 519.743 176.51 520.564 177.82 520.333C179.116 520.104 179.853 518.965 179.605 517.559C179.357 516.152 178.275 515.334 176.979 515.562C175.669 515.793 174.945 516.93 175.193 518.337ZM180.985 513.847L181.978 513.672L181.788 512.596C181.497 510.942 182.287 510.106 183.515 509.889C183.763 509.845 184.055 509.808 184.324 509.803L184.521 510.92L183.942 511.022C183.101 511.171 182.955 511.637 183.084 512.368L183.274 513.443L184.873 513.161L185.065 514.25L183.466 514.532L184.463 520.185L183.167 520.414L182.17 514.761L181.177 514.936L180.985 513.847ZM189.291 519.334L187.995 519.562L186.998 513.909L185.674 514.143L185.482 513.054L186.806 512.82L186.434 510.711L187.73 510.482L188.102 512.592L189.425 512.358L189.618 513.448L188.294 513.681L189.291 519.334ZM193.225 518.64L189.83 512.287L191.168 512.051L192.902 515.356C193.141 515.826 193.369 516.312 193.598 516.883C193.603 516.27 193.683 515.673 193.757 515.205L194.27 511.504L195.593 511.271L197.328 514.576C197.496 514.887 197.855 515.634 198.051 516.097C198.066 515.54 198.108 515.05 198.196 514.423L198.709 510.721L200.06 510.483L198.947 517.631L197.72 517.847L195.911 514.442C195.571 513.805 195.341 513.306 195.206 512.945C195.196 513.288 195.149 513.752 195.045 514.609L194.507 518.414L193.225 518.64ZM204.051 516.902C202.604 517.157 201.605 516.494 201.389 515.267C201.17 514.026 201.958 513.091 203.521 512.688L205.616 512.148L205.581 511.955C205.382 510.824 204.636 510.543 203.726 510.704C202.637 510.896 202.102 511.488 202.245 512.301L201.114 512.501C200.866 511.094 201.862 509.966 203.599 509.66C205.267 509.366 206.553 510.049 206.874 511.869L207.621 516.102L206.518 516.296L206.188 515.231C205.979 516.064 205.14 516.71 204.051 516.902ZM204.246 515.829C205.473 515.613 206.077 514.682 205.853 513.414L205.79 513.055L204.091 513.497C202.966 513.809 202.575 514.333 202.691 514.995C202.818 515.712 203.405 515.978 204.246 515.829ZM212.077 508.307L212.286 509.493L211.707 509.595C210.48 509.811 209.853 510.69 210.082 511.986L210.711 515.557L209.415 515.785L208.229 509.057L209.442 508.843L209.705 509.849C209.857 509.097 210.45 508.509 211.373 508.346C211.608 508.305 211.806 508.298 212.077 508.307ZM217.187 514.585C215.202 514.935 213.584 513.742 213.215 511.647C212.843 509.537 213.922 507.84 215.88 507.495C217.797 507.157 219.285 508.259 219.637 510.258L219.722 510.741L214.513 511.673C214.86 513.077 215.743 513.731 217.025 513.505C218.032 513.328 218.621 512.797 218.705 511.986L219.918 511.772C219.843 513.278 218.856 514.291 217.187 514.585ZM216.072 508.584C214.942 508.783 214.344 509.585 214.387 510.8L218.276 510.114C218.079 508.998 217.217 508.382 216.072 508.584ZM228.223 512.639C226.265 512.985 224.822 511.732 224.46 509.678C224.095 507.61 225.027 505.882 227.026 505.529C228.06 505.347 229.009 505.649 229.61 506.396L228.817 501.901L230.1 501.675L231.889 511.822L230.731 512.027L230.404 510.819C230.126 511.821 229.299 512.45 228.223 512.639ZM228.278 511.421C229.602 511.188 230.243 510.066 229.995 508.659C229.752 507.281 228.763 506.431 227.44 506.665C226.116 506.898 225.519 508.027 225.762 509.406C226.008 510.798 226.955 511.655 228.278 511.421ZM236.697 511.145C234.712 511.495 233.094 510.302 232.724 508.206C232.352 506.097 233.432 504.4 235.39 504.055C237.306 503.717 238.794 504.819 239.147 506.818L239.232 507.301L234.023 508.233C234.37 509.637 235.253 510.291 236.535 510.065C237.541 509.888 238.13 509.357 238.215 508.546L239.428 508.332C239.352 509.838 238.365 510.851 236.697 511.145ZM235.582 505.144C234.451 505.343 233.853 506.145 233.897 507.36L237.785 506.674C237.588 505.558 236.726 504.942 235.582 505.144ZM242.891 509.882L238.986 503.619L240.365 503.376L242.504 506.88C242.85 507.473 243.143 508.004 243.326 508.398C243.359 507.938 243.477 507.32 243.607 506.686L244.446 502.657L245.797 502.418L244.173 509.656L242.891 509.882ZM250.646 508.686C248.66 509.036 247.043 507.843 246.673 505.747C246.301 503.637 247.381 501.94 249.339 501.595C251.255 501.257 252.743 502.359 253.096 504.359L253.181 504.841L247.972 505.774C248.318 507.177 249.202 507.832 250.484 507.605C251.49 507.428 252.079 506.898 252.164 506.087L253.377 505.873C253.301 507.379 252.314 508.392 250.646 508.686ZM249.531 502.684C248.4 502.884 247.802 503.686 247.846 504.9L251.734 504.215C251.537 503.098 250.675 502.482 249.531 502.684ZM256.504 507.482L255.208 507.711L253.418 497.563L254.714 497.335L256.504 507.482ZM257.375 503.846C257.008 501.764 258.239 500.04 260.266 499.682C262.279 499.328 264.025 500.526 264.392 502.608C264.76 504.69 263.528 506.414 261.515 506.769C259.489 507.127 257.742 505.928 257.375 503.846ZM258.685 503.615C258.932 505.021 260.001 505.842 261.311 505.611C262.607 505.382 263.344 504.243 263.096 502.837C262.848 501.431 261.766 500.612 260.47 500.841C259.16 501.072 258.437 502.208 258.685 503.615ZM266.955 508.753L265.234 498.991L266.406 498.785L266.716 499.981C267.008 498.977 267.833 498.334 268.909 498.144C270.839 497.804 272.294 499.04 272.658 501.108C273.021 503.162 272.162 504.906 270.163 505.259C269.088 505.448 268.111 505.151 267.524 504.402L268.251 508.524L266.955 508.753ZM267.139 502.138C267.382 503.517 268.357 504.369 269.681 504.135C271.004 503.902 271.615 502.771 271.372 501.392C271.126 499.999 270.166 499.145 268.842 499.379C267.518 499.612 266.891 500.732 267.139 502.138ZM275.986 504.047L274.69 504.276L273.501 497.534L274.659 497.329L274.939 498.19C275.172 497.495 275.811 496.927 276.762 496.76C277.81 496.575 278.647 496.967 279.14 497.748C279.309 496.851 280.03 496.183 281.077 495.999C282.622 495.726 283.729 496.526 284.004 498.084L284.782 502.496L283.514 502.72L282.792 498.625C282.604 497.563 281.905 497.061 280.995 497.222C280.016 497.394 279.489 498.198 279.679 499.273L280.384 503.272L279.102 503.498L278.377 499.389C278.19 498.327 277.509 497.85 276.599 498.011C275.62 498.183 275.091 498.973 275.281 500.049L275.986 504.047ZM289.517 501.832C287.531 502.182 285.914 500.989 285.544 498.893C285.172 496.783 286.252 495.086 288.21 494.741C290.126 494.403 291.614 495.505 291.967 497.505L292.052 497.987L286.843 498.92C287.189 500.323 288.073 500.978 289.355 500.751C290.361 500.574 290.95 500.044 291.035 499.233L292.248 499.019C292.172 500.525 291.185 501.538 289.517 501.832ZM288.402 495.83C287.271 496.03 286.673 496.832 286.717 498.046L290.605 497.361C290.408 496.244 289.546 495.628 288.402 495.83ZM295.347 500.633L294.051 500.862L292.862 494.12L294.034 493.913L294.354 494.923C294.646 494.075 295.42 493.47 296.372 493.302C298.15 492.988 299.156 493.934 299.46 495.657L300.187 499.78L298.891 500.008L298.215 496.175C297.974 494.81 297.243 494.371 296.25 494.546C295.037 494.76 294.487 495.752 294.718 497.062L295.347 500.633ZM303.884 499.128L302.588 499.356L301.591 493.703L300.268 493.937L300.076 492.848L301.399 492.614L301.027 490.505L302.323 490.276L302.695 492.386L304.019 492.152L304.211 493.242L302.887 493.475L303.884 499.128ZM306.948 498.758C306.41 498.853 305.877 498.492 305.785 497.968C305.69 497.43 306.067 496.909 306.605 496.814C307.129 496.722 307.662 497.083 307.756 497.62C307.849 498.144 307.472 498.666 306.948 498.758Z" fill="#C4D9D1"/>
<path d="M44.2922 504.572C48.5482 502.309 53.4114 501.452 58.1847 502.122C62.958 502.793 67.3964 504.958 70.8638 508.306C74.3312 511.655 76.6496 516.015 77.4866 520.762C78.3236 525.509 77.6364 530.399 75.5233 534.732C73.4103 539.064 69.9799 542.616 65.7239 544.879C61.4679 547.142 56.6047 548 51.8313 547.329C47.058 546.658 42.6196 544.493 39.1522 541.145C35.6848 537.796 33.3665 533.436 32.5294 528.689C31.6924 523.942 32.3797 519.052 34.4927 514.72C36.6058 510.387 40.0361 506.835 44.2922 504.572Z" fill="white"/>
<path d="M56.6907 531.757C54.0672 532.219 52.0716 530.853 51.6215 528.301L53.341 527.997C53.6317 529.646 54.8202 530.478 56.4511 530.191C58.1883 529.884 59.1019 528.535 58.7956 526.798C58.5049 525.149 57.2433 524.111 55.453 524.426C54.3716 524.617 53.4696 525.306 53.0128 526.136L51.4758 526.023L51.8761 519.172L58.2932 518.04L58.5745 519.636L53.416 520.545L53.1653 524.099C53.7483 523.466 54.5522 523.05 55.5095 522.881C58.1153 522.422 60.1212 523.951 60.5557 526.415C61.0246 529.074 59.456 531.269 56.6907 531.757Z" fill="#16063E"/>
</g>
<g clip-path="url(#clip3_2_36)">
<rect x="199.808" y="389.879" width="332" height="72" rx="20" transform="rotate(10 199.808 389.879)" fill="#7444EE"/>
<path d="M267.669 423.686C268.069 421.417 270.226 420.17 272.956 420.652C275.579 421.114 276.989 422.862 276.648 425.214L274.379 424.814C274.523 423.688 273.84 422.891 272.564 422.666C271.164 422.419 270.141 422.934 269.95 424.015C269.788 424.937 270.193 425.538 271.231 425.977L273.191 426.78C275.323 427.649 276.204 428.974 275.863 430.906C275.438 433.317 273.284 434.546 270.43 434.043C267.665 433.555 266.116 431.765 266.473 429.433L268.742 429.833C268.565 430.936 269.336 431.748 270.79 432.004C272.296 432.27 273.369 431.783 273.56 430.701C273.713 429.833 273.361 429.241 272.338 428.823L270.363 427.999C268.249 427.133 267.319 425.671 267.669 423.686ZM277.199 430.466C277.68 427.736 279.979 426.204 282.691 426.682C285.403 427.16 287.04 429.386 286.558 432.116C286.077 434.846 283.778 436.378 281.066 435.9C278.354 435.421 276.717 433.196 277.199 430.466ZM279.361 430.847C279.08 432.442 279.917 433.705 281.406 433.968C282.895 434.23 284.114 433.33 284.396 431.735C284.677 430.139 283.839 428.877 282.35 428.614C280.861 428.352 279.643 429.252 279.361 430.847ZM288.138 427.898L289.397 428.12L289.584 427.057C290.003 424.681 291.437 423.91 293.333 424.245C293.67 424.304 294.075 424.394 294.435 424.53L294.11 426.374L293.347 426.24C292.248 426.046 291.882 426.566 291.729 427.435L291.542 428.498L293.633 428.867L293.315 430.675L291.223 430.307L289.998 437.255L287.853 436.877L289.078 429.928L287.819 429.706L288.138 427.898ZM296.69 438.435L294.527 438.054L295.753 431.105L294.069 430.808L294.387 429L296.071 429.297L296.553 426.567L298.715 426.949L298.234 429.678L299.936 429.979L299.617 431.787L297.915 431.487L296.69 438.435ZM301.668 439.313L300.376 430.056L302.627 430.453L303.117 434.414C303.19 435.14 303.233 435.934 303.249 436.777C303.558 435.954 303.815 435.433 304.252 434.614L306.12 431.069L308.318 431.456L308.825 435.421C308.869 435.794 308.992 437.168 308.995 437.772C309.253 437.141 309.721 436.145 309.977 435.624L311.81 432.072L314.097 432.475L309.521 440.698L307.5 440.342L306.964 436.336C306.813 435.121 306.764 434.253 306.772 433.798C306.611 434.19 306.342 434.782 305.646 436.14L303.778 439.685L301.668 439.313ZM315.994 442.077C314.133 441.749 313.189 440.467 313.48 438.819C313.764 437.206 315.113 436.402 317.215 436.608L319.873 436.875L319.907 436.68C320.116 435.493 319.492 434.889 318.393 434.695C317.116 434.47 316.314 434.877 316.151 435.799L314.307 435.474C314.642 433.577 316.421 432.611 318.796 433.03C321.154 433.446 322.382 434.978 321.954 437.407L321.016 442.725L319.119 442.39L319.188 441.068C318.656 441.907 317.359 442.318 315.994 442.077ZM316.991 440.571C318.321 440.805 319.312 440.158 319.55 438.811L319.631 438.35L317.78 438.17C316.411 438.056 315.819 438.409 315.694 439.118C315.553 439.915 316.016 440.399 316.991 440.571ZM330.186 435.276L329.833 437.279L329.035 437.138C327.475 436.863 326.354 437.525 326.054 439.226L325.303 443.481L323.141 443.099L324.682 434.36L326.72 434.72L326.619 436.018C327.145 435.215 328.081 434.777 329.251 434.983C329.552 435.036 329.847 435.125 330.186 435.276ZM333.682 445.196C331.077 444.736 329.585 442.518 330.063 439.805C330.548 437.058 332.673 435.477 335.243 435.93C337.867 436.393 339.224 438.441 338.742 441.171L338.627 441.827L332.029 440.682C331.917 442.252 332.595 443.176 334.03 443.429C335.218 443.639 336.079 443.315 336.474 442.526L338.478 442.879C337.768 444.728 335.969 445.599 333.682 445.196ZM334.948 437.706C333.672 437.481 332.77 438.035 332.326 439.309L336.722 440.084C336.935 438.879 336.242 437.934 334.948 437.706ZM345.551 435.847L345.92 433.755L355.776 435.493L355.407 437.585L351.614 436.916L349.698 447.782L347.429 447.382L349.345 436.516L345.551 435.847ZM357.295 449.359C354.689 448.9 353.198 446.681 353.676 443.969C354.16 441.221 356.285 439.64 358.855 440.093C361.479 440.556 362.836 442.605 362.354 445.335L362.239 445.991L355.641 444.846C355.529 446.416 356.207 447.34 357.643 447.593C358.83 447.802 359.692 447.479 360.087 446.69L362.09 447.043C361.38 448.892 359.581 449.762 357.295 449.359ZM358.561 441.869C357.284 441.644 356.382 442.198 355.938 443.472L360.335 444.247C360.547 443.042 359.855 442.097 358.561 441.869ZM363.08 447.4L365.137 447.763C365.02 448.528 365.503 449.107 366.496 449.282C367.506 449.46 368.127 449.149 368.24 448.511C368.318 448.068 368.144 447.708 367.395 447.393L365.883 446.743C364.368 446.11 363.737 445.231 363.984 443.831C364.287 442.111 365.922 441.339 367.943 441.696C369.91 442.043 371.04 443.412 370.758 445.117L368.701 444.754C368.815 444.006 368.403 443.44 367.57 443.293C366.719 443.143 366.154 443.446 366.038 444.102C365.951 444.598 366.284 444.986 366.998 445.294L368.51 445.945C369.921 446.541 370.547 447.346 370.31 448.693C369.997 450.466 368.297 451.299 366.134 450.918C363.954 450.533 362.777 449.12 363.08 447.4ZM374.469 452.15L372.306 451.769L373.531 444.82L371.847 444.523L372.166 442.715L373.85 443.012L374.331 440.282L376.494 440.663L376.013 443.393L377.714 443.693L377.396 445.501L375.694 445.201L374.469 452.15ZM380.45 442.366C379.705 442.235 379.223 441.546 379.351 440.82C379.48 440.093 380.165 439.629 380.909 439.76C381.618 439.885 382.103 440.555 381.975 441.282C381.847 442.009 381.159 442.491 380.45 442.366ZM377.515 452.687L379.059 443.93L381.222 444.311L379.677 453.068L377.515 452.687ZM384.074 453.844L381.912 453.462L383.456 444.705L385.459 445.059L385.436 446.224C386.142 445.435 387.296 445.108 388.484 445.318C390.682 445.705 391.576 447.27 391.176 449.539L390.226 454.928L388.063 454.547L388.923 449.672C389.182 448.201 388.58 447.364 387.463 447.167C386.134 446.932 385.156 447.71 384.906 449.128L384.074 453.844ZM392.66 450.642C393.111 448.089 395.114 446.469 397.614 446.909C398.926 447.141 399.857 447.871 400.205 448.902L400.542 447.718L402.545 448.071L401.079 456.385C400.563 459.31 398.487 460.826 395.65 460.326C393.133 459.882 391.667 458.143 391.813 455.757L393.976 456.138C393.918 457.297 394.668 458.124 395.997 458.359C397.486 458.621 398.609 457.85 398.865 456.397L399.122 454.943C398.428 455.662 397.256 455.985 395.998 455.763C393.516 455.326 392.214 453.177 392.66 450.642ZM394.85 450.973C394.591 452.444 395.337 453.709 396.755 453.959C398.244 454.222 399.35 453.338 399.619 451.814C399.881 450.325 399.158 449.137 397.652 448.872C396.216 448.619 395.103 449.537 394.85 450.973Z" fill="white"/>
<path d="M265.791 456.348L262.496 455.767L264.253 445.799L267.493 446.37C270.471 446.895 272.129 449.263 271.604 452.241C271.082 455.206 268.741 456.868 265.791 456.348ZM267.178 447.594L265.386 447.278L264.068 454.751L265.915 455.077C268.135 455.468 269.794 454.282 270.198 451.993C270.606 449.677 269.453 447.995 267.178 447.594ZM275.105 458.161C273.12 457.811 272.007 456.136 272.377 454.041C272.749 451.931 274.344 450.706 276.302 451.051C278.218 451.389 279.24 452.934 278.887 454.933L278.802 455.415L273.588 454.51C273.434 455.947 274.04 456.864 275.322 457.091C276.329 457.268 277.063 456.971 277.42 456.238L278.633 456.452C278.047 457.841 276.773 458.455 275.105 458.161ZM276.11 452.14C274.979 451.941 274.143 452.49 273.769 453.646L277.657 454.332C277.854 453.215 277.254 452.342 276.11 452.14ZM281.533 459.124L280.237 458.895L281.234 453.243L279.91 453.009L280.102 451.92L281.426 452.153L281.798 450.044L283.094 450.273L282.722 452.382L284.045 452.615L283.853 453.705L282.53 453.471L281.533 459.124ZM286.832 460.229C284.847 459.879 283.735 458.204 284.104 456.109C284.476 453.999 286.071 452.774 288.029 453.119C289.946 453.457 290.967 455.002 290.614 457.001L290.529 457.483L285.315 456.578C285.161 458.015 285.767 458.932 287.049 459.158C288.056 459.336 288.791 459.039 289.147 458.306L290.361 458.52C289.775 459.909 288.501 460.523 286.832 460.229ZM287.837 454.208C286.707 454.009 285.87 454.558 285.496 455.714L289.384 456.4C289.581 455.283 288.981 454.41 287.837 454.208ZM291.577 457.426C291.949 455.317 293.544 454.091 295.516 454.439C297.211 454.738 298.227 455.912 298.196 457.456L296.9 457.228C296.83 456.334 296.221 455.757 295.353 455.604C294.126 455.388 293.119 456.177 292.862 457.639C292.606 459.086 293.227 460.162 294.454 460.379C295.378 460.542 296.152 460.181 296.528 459.422L297.824 459.651C297.304 461.066 295.877 461.824 294.25 461.537C292.264 461.187 291.203 459.55 291.577 457.426ZM300.692 462.502L299.396 462.274L300.393 456.621L299.07 456.388L299.262 455.298L300.585 455.532L300.957 453.422L302.253 453.651L301.881 455.76L303.205 455.994L303.013 457.083L301.689 456.85L300.692 462.502ZM305.284 454.711C304.815 454.629 304.497 454.175 304.58 453.706C304.665 453.223 305.117 452.919 305.586 453.002C306.054 453.084 306.375 453.525 306.29 454.007C306.207 454.476 305.753 454.794 305.284 454.711ZM303.179 462.941L304.368 456.199L305.664 456.427L304.475 463.169L303.179 462.941ZM307.653 463.73L306.357 463.501L307.545 456.759L308.717 456.966L308.673 458.024C309.237 457.327 310.172 457.023 311.123 457.191C312.901 457.504 313.523 458.737 313.219 460.46L312.492 464.583L311.196 464.354L311.872 460.521C312.113 459.157 311.576 458.493 310.583 458.318C309.37 458.104 308.513 458.849 308.282 460.159L307.653 463.73ZM314.484 461.281C314.82 459.378 316.31 458.105 318.267 458.451C319.357 458.643 320.11 459.287 320.389 460.204L320.687 459.076L321.846 459.281L320.705 465.747C320.331 467.87 318.783 468.99 316.715 468.626C314.881 468.302 313.809 467.047 313.862 465.294L315.158 465.522C315.149 466.544 315.791 467.254 316.922 467.454C318.19 467.677 319.163 466.996 319.389 465.714L319.627 464.363C319.048 465.071 318.083 465.384 317.021 465.197C315.105 464.859 314.151 463.17 314.484 461.281ZM315.785 461.482C315.562 462.75 316.173 463.881 317.441 464.105C318.751 464.336 319.716 463.539 319.949 462.216C320.178 460.92 319.571 459.846 318.247 459.613C316.951 459.384 316.004 460.241 315.785 461.482ZM328.24 467.53C326.792 467.275 326.08 466.311 326.297 465.084C326.516 463.843 327.576 463.234 329.183 463.389L331.335 463.598L331.369 463.405C331.569 462.274 330.964 461.755 330.054 461.595C328.965 461.403 328.259 461.776 328.116 462.59L326.985 462.39C327.233 460.984 328.554 460.264 330.291 460.571C331.959 460.865 332.934 461.947 332.614 463.767L331.867 467.999L330.764 467.805L330.818 466.691C330.338 467.403 329.329 467.722 328.24 467.53ZM328.789 466.589C330.016 466.806 330.902 466.137 331.126 464.869L331.189 464.51L329.441 464.344C328.277 464.253 327.731 464.611 327.614 465.273C327.488 465.99 327.948 466.441 328.789 466.589ZM334.958 468.544L333.662 468.316L334.851 461.574L336.023 461.78L335.978 462.839C336.542 462.142 337.477 461.838 338.428 462.005C340.207 462.319 340.828 463.552 340.524 465.275L339.797 469.398L338.501 469.169L339.177 465.336C339.418 463.971 338.881 463.308 337.888 463.133C336.675 462.919 335.819 463.664 335.588 464.973L334.958 468.544ZM344.266 470.356C342.308 470.011 341.38 468.34 341.742 466.286C342.107 464.218 343.574 462.913 345.573 463.265C346.607 463.448 347.395 464.056 347.704 464.963L348.497 460.469L349.779 460.695L347.99 470.842L346.832 470.638L346.938 469.391C346.334 470.237 345.341 470.546 344.266 470.356ZM344.734 469.23C346.058 469.464 347.044 468.628 347.292 467.222C347.535 465.843 346.896 464.707 345.573 464.474C344.249 464.24 343.302 465.097 343.059 466.476C342.814 467.868 343.411 468.997 344.734 469.23ZM354.101 464.968L355.094 465.143L355.284 464.068C355.575 462.413 356.604 461.898 357.831 462.114C358.08 462.158 358.367 462.223 358.621 462.311L358.424 463.427L357.845 463.325C357.004 463.177 356.708 463.566 356.58 464.296L356.39 465.372L357.989 465.654L357.797 466.743L356.198 466.461L355.201 472.114L353.905 471.885L354.902 466.232L353.909 466.057L354.101 464.968ZM360.11 464.379C359.641 464.296 359.324 463.842 359.406 463.373C359.491 462.89 359.943 462.586 360.412 462.669C360.88 462.752 361.201 463.192 361.116 463.675C361.033 464.143 360.579 464.461 360.11 464.379ZM358.005 472.608L359.194 465.866L360.49 466.095L359.301 472.837L358.005 472.608ZM361.872 473.29L360.383 473.027L363.329 470.107L361.586 466.288L363.089 466.553L364.356 469.364L366.466 467.148L367.942 467.409L364.997 470.401L366.712 474.143L365.209 473.878L363.962 471.114L361.872 473.29ZM369.939 466.112C369.47 466.029 369.152 465.575 369.235 465.106C369.32 464.624 369.772 464.319 370.241 464.402C370.709 464.485 371.03 464.925 370.945 465.408C370.862 465.876 370.408 466.194 369.939 466.112ZM367.834 474.341L369.023 467.599L370.319 467.828L369.13 474.57L367.834 474.341ZM372.308 475.13L371.012 474.901L372.2 468.159L373.372 468.366L373.328 469.424C373.891 468.728 374.826 468.423 375.778 468.591C377.556 468.905 378.178 470.137 377.874 471.861L377.147 475.983L375.851 475.755L376.527 471.922C376.767 470.557 376.231 469.894 375.238 469.719C374.025 469.505 373.168 470.249 372.937 471.559L372.308 475.13ZM379.139 472.681C379.475 470.778 380.965 469.506 382.922 469.851C384.012 470.043 384.765 470.688 385.044 471.604L385.342 470.477L386.501 470.681L385.36 477.147C384.986 479.27 383.438 480.391 381.37 480.026C379.536 479.703 378.464 478.447 378.517 476.694L379.813 476.923C379.804 477.944 380.446 478.655 381.577 478.854C382.845 479.078 383.818 478.396 384.044 477.114L384.282 475.763C383.703 476.471 382.738 476.784 381.676 476.597C379.76 476.259 378.806 474.57 379.139 472.681ZM380.44 472.882C380.217 474.15 380.827 475.282 382.096 475.505C383.406 475.736 384.371 474.94 384.604 473.616C384.833 472.32 384.226 471.247 382.902 471.013C381.606 470.785 380.659 471.641 380.44 472.882ZM393.625 479.059C391.667 478.714 390.739 477.044 391.102 474.989C391.466 472.921 392.933 471.616 394.932 471.969C395.966 472.151 396.755 472.759 397.064 473.667L397.856 469.172L399.139 469.398L397.349 479.546L396.191 479.341L396.297 478.095C395.693 478.941 394.701 479.249 393.625 479.059ZM394.094 477.934C395.417 478.167 396.403 477.332 396.651 475.925C396.895 474.547 396.256 473.41 394.933 473.177C393.609 472.944 392.662 473.8 392.419 475.179C392.173 476.571 392.77 477.7 394.094 477.934ZM402.099 480.554C400.114 480.204 399.002 478.529 399.371 476.433C399.743 474.324 401.338 473.098 403.296 473.443C405.212 473.781 406.234 475.326 405.881 477.325L405.796 477.808L400.582 476.903C400.428 478.34 401.034 479.257 402.316 479.483C403.323 479.661 404.057 479.364 404.414 478.63L405.627 478.844C405.041 480.234 403.767 480.848 402.099 480.554ZM403.104 474.533C401.973 474.333 401.137 474.882 400.763 476.039L404.651 476.725C404.848 475.608 404.248 474.734 403.104 474.533ZM407.164 474.324L408.156 474.499L408.346 473.424C408.638 471.77 409.667 471.254 410.894 471.471C411.142 471.515 411.429 471.579 411.684 471.667L411.487 472.784L410.908 472.682C410.067 472.533 409.771 472.922 409.642 473.653L409.452 474.728L411.052 475.01L410.86 476.099L409.26 475.817L408.263 481.47L406.967 481.241L407.964 475.589L406.971 475.414L407.164 474.324ZM413.746 482.607C411.76 482.257 410.648 480.583 411.018 478.487C411.39 476.377 412.985 475.152 414.942 475.497C416.859 475.835 417.88 477.38 417.528 479.379L417.442 479.861L412.228 478.956C412.075 480.393 412.681 481.311 413.963 481.537C414.969 481.714 415.704 481.417 416.061 480.684L417.274 480.898C416.688 482.287 415.414 482.901 413.746 482.607ZM414.75 476.586C413.62 476.387 412.784 476.936 412.409 478.093L416.297 478.778C416.494 477.661 415.895 476.788 414.75 476.586ZM418.49 479.805C418.862 477.695 420.457 476.469 422.429 476.817C424.125 477.116 425.14 478.29 425.11 479.834L423.814 479.606C423.744 478.712 423.135 478.136 422.266 477.982C421.039 477.766 420.033 478.555 419.775 480.017C419.52 481.464 420.14 482.541 421.367 482.757C422.291 482.92 423.065 482.559 423.441 481.801L424.737 482.029C424.217 483.444 422.79 484.202 421.163 483.915C419.178 483.565 418.116 481.928 418.49 479.805ZM427.606 484.881L426.31 484.652L427.306 478.999L425.983 478.766L426.175 477.677L427.499 477.91L427.87 475.801L429.166 476.029L428.795 478.139L430.118 478.372L429.926 479.461L428.602 479.228L427.606 484.881ZM429.886 483.264L431.127 483.483C431.005 484.172 431.456 484.678 432.311 484.829C433.221 484.989 433.811 484.709 433.92 484.089C434 483.634 433.828 483.319 433.157 483.016L432.02 482.531C430.871 482.03 430.411 481.338 430.586 480.345C430.804 479.104 431.991 478.503 433.48 478.766C434.955 479.026 435.774 480.023 435.576 481.31L434.335 481.091C434.427 480.411 434.047 479.903 433.261 479.765C432.448 479.621 431.929 479.9 431.82 480.52C431.74 480.975 432.017 481.337 432.65 481.619L433.784 482.117C434.88 482.595 435.353 483.219 435.176 484.225C434.95 485.507 433.703 486.126 432.104 485.844C430.518 485.565 429.66 484.546 429.886 483.264ZM437.128 486.73C436.59 486.635 436.213 486.114 436.305 485.59C436.4 485.052 436.933 484.691 437.47 484.786C437.994 484.878 438.371 485.4 438.277 485.938C438.184 486.461 437.652 486.822 437.128 486.73Z" fill="#D5C7FA"/>
<path d="M225.829 408.979C230.603 408.308 235.466 409.166 239.722 411.429C243.978 413.692 247.408 417.244 249.521 421.576C251.634 425.909 252.322 430.799 251.485 435.546C250.647 440.293 248.329 444.653 244.862 448.001C241.394 451.35 236.956 453.515 232.183 454.185C227.409 454.856 222.546 453.999 218.29 451.736C214.034 449.473 210.604 445.921 208.491 441.588C206.378 437.256 205.69 432.366 206.527 427.619C207.364 422.872 209.683 418.511 213.15 415.163C216.617 411.815 221.056 409.65 225.829 408.979Z" fill="white"/>
<path d="M233.036 436.736L231.512 436.467L231.055 439.055L229.389 438.761L229.845 436.173L223.216 435.004L223.488 433.462L231.064 425.842L233.315 426.239L231.784 434.925L233.308 435.194L233.036 436.736ZM225.367 433.793L230.117 434.631L231.324 427.789L225.367 433.793Z" fill="#16063E"/>
</g>
<rect x="189.305" y="215.875" width="352" height="72" rx="20" fill="#F37F14"/>
<path d="M262.007 237.389C262.007 235.085 263.915 233.483 266.687 233.483C269.351 233.483 271.043 234.959 271.115 237.335H268.811C268.757 236.201 267.947 235.535 266.651 235.535C265.229 235.535 264.311 236.219 264.311 237.317C264.311 238.253 264.815 238.775 265.913 239.027L267.983 239.477C270.233 239.963 271.331 241.115 271.331 243.077C271.331 245.525 269.423 247.109 266.525 247.109C263.717 247.109 261.881 245.615 261.827 243.257H264.131C264.149 244.373 265.049 245.039 266.525 245.039C268.055 245.039 269.027 244.373 269.027 243.275C269.027 242.393 268.577 241.871 267.497 241.637L265.409 241.169C263.177 240.683 262.007 239.405 262.007 237.389ZM272.569 242.411C272.569 239.639 274.567 237.731 277.321 237.731C280.075 237.731 282.073 239.639 282.073 242.411C282.073 245.183 280.075 247.091 277.321 247.091C274.567 247.091 272.569 245.183 272.569 242.411ZM274.765 242.411C274.765 244.031 275.809 245.129 277.321 245.129C278.833 245.129 279.877 244.031 279.877 242.411C279.877 240.791 278.833 239.693 277.321 239.693C275.809 239.693 274.765 240.791 274.765 242.411ZM282.897 237.983H284.175V236.903C284.175 234.491 285.453 233.483 287.379 233.483C287.721 233.483 288.135 233.501 288.513 233.573V235.445H287.739C286.623 235.445 286.353 236.021 286.353 236.903V237.983H288.477V239.819H286.353V246.875H284.175V239.819H282.897V237.983ZM293.148 246.875H290.952V239.819H289.242V237.983H290.952V235.211H293.148V237.983H294.876V239.819H293.148V246.875ZM298.203 246.875L295.323 237.983H297.609L298.779 241.799C298.977 242.501 299.157 243.275 299.319 244.103C299.481 243.239 299.643 242.681 299.931 241.799L301.155 237.983H303.387L304.575 241.799C304.683 242.159 305.043 243.491 305.151 244.085C305.295 243.419 305.583 242.357 305.745 241.799L306.933 237.983H309.255L306.177 246.875H304.125L302.901 243.023C302.541 241.853 302.343 241.007 302.271 240.557C302.181 240.971 302.019 241.601 301.569 243.059L300.345 246.875H298.203ZM312.792 247.109C310.902 247.109 309.75 246.011 309.75 244.337C309.75 242.699 310.938 241.673 313.044 241.511L315.708 241.313V241.115C315.708 239.909 314.988 239.423 313.872 239.423C312.576 239.423 311.856 239.963 311.856 240.899H309.984C309.984 238.973 311.568 237.713 313.98 237.713C316.374 237.713 317.85 239.009 317.85 241.475V246.875H315.924L315.762 245.561C315.384 246.479 314.178 247.109 312.792 247.109ZM313.512 245.453C314.862 245.453 315.726 244.643 315.726 243.275V242.807L313.872 242.951C312.504 243.077 311.982 243.527 311.982 244.247C311.982 245.057 312.522 245.453 313.512 245.453ZM325.587 237.947V239.981H324.777C323.193 239.981 322.203 240.827 322.203 242.555V246.875H320.007V238.001H322.077L322.203 239.297C322.581 238.415 323.427 237.821 324.615 237.821C324.921 237.821 325.227 237.857 325.587 237.947ZM330.753 247.109C328.107 247.109 326.253 245.183 326.253 242.429C326.253 239.639 328.071 237.713 330.681 237.713C333.345 237.713 335.037 239.495 335.037 242.267V242.933L328.341 242.951C328.503 244.517 329.331 245.309 330.789 245.309C331.995 245.309 332.787 244.841 333.039 243.995H335.073C334.695 245.939 333.075 247.109 330.753 247.109ZM330.699 239.513C329.403 239.513 328.611 240.215 328.395 241.547H332.859C332.859 240.323 332.013 239.513 330.699 239.513ZM346.704 246.875H341.97V233.717H346.578C350.466 233.717 353.148 236.399 353.148 240.323C353.148 244.193 350.52 246.875 346.704 246.875ZM346.362 235.841H344.274V244.751H346.488C349.116 244.751 350.718 243.059 350.718 240.323C350.718 237.533 349.08 235.841 346.362 235.841ZM358.948 247.109C356.302 247.109 354.448 245.183 354.448 242.429C354.448 239.639 356.266 237.713 358.876 237.713C361.54 237.713 363.232 239.495 363.232 242.267V242.933L356.536 242.951C356.698 244.517 357.526 245.309 358.984 245.309C360.19 245.309 360.982 244.841 361.234 243.995H363.268C362.89 245.939 361.27 247.109 358.948 247.109ZM358.894 239.513C357.598 239.513 356.806 240.215 356.59 241.547H361.054C361.054 240.323 360.208 239.513 358.894 239.513ZM367.123 246.875L363.595 237.983H365.935L367.483 242.069C367.861 243.131 368.167 244.049 368.275 244.535C368.401 243.977 368.725 243.041 369.103 242.069L370.723 237.983H372.991L369.283 246.875H367.123ZM377.792 247.109C375.146 247.109 373.292 245.183 373.292 242.429C373.292 239.639 375.11 237.713 377.72 237.713C380.384 237.713 382.076 239.495 382.076 242.267V242.933L375.38 242.951C375.542 244.517 376.37 245.309 377.828 245.309C379.034 245.309 379.826 244.841 380.078 243.995H382.112C381.734 245.939 380.114 247.109 377.792 247.109ZM377.738 239.513C376.442 239.513 375.65 240.215 375.434 241.547H379.898C379.898 240.323 379.052 239.513 377.738 239.513ZM386.047 246.875H383.869V233.483H386.047V246.875ZM387.829 242.411C387.829 239.639 389.827 237.731 392.581 237.731C395.335 237.731 397.333 239.639 397.333 242.411C397.333 245.183 395.335 247.091 392.581 247.091C389.827 247.091 387.829 245.183 387.829 242.411ZM390.025 242.411C390.025 244.031 391.069 245.129 392.581 245.129C394.093 245.129 395.137 244.031 395.137 242.411C395.137 240.791 394.093 239.693 392.581 239.693C391.069 239.693 390.025 240.791 390.025 242.411ZM399.073 250.997V237.983H401.107L401.251 239.333C401.791 238.307 402.961 237.713 404.311 237.713C406.813 237.713 408.469 239.531 408.469 242.321C408.469 245.093 406.957 247.109 404.311 247.109C402.979 247.109 401.827 246.587 401.269 245.687V250.997H399.073ZM401.287 242.429C401.287 244.031 402.277 245.129 403.789 245.129C405.337 245.129 406.255 244.013 406.255 242.429C406.255 240.845 405.337 239.711 403.789 239.711C402.277 239.711 401.287 240.827 401.287 242.429ZM412.414 246.875H410.218V237.983H412.234L412.414 239.027C412.864 238.289 413.764 237.713 415.042 237.713C416.392 237.713 417.328 238.379 417.796 239.405C418.246 238.379 419.29 237.713 420.64 237.713C422.8 237.713 423.988 239.009 423.988 241.061V246.875H421.81V241.637C421.81 240.359 421.126 239.693 420.082 239.693C419.02 239.693 418.21 240.377 418.21 241.835V246.875H416.014V241.619C416.014 240.377 415.348 239.711 414.304 239.711C413.26 239.711 412.414 240.395 412.414 241.835V246.875ZM430.122 247.109C427.476 247.109 425.622 245.183 425.622 242.429C425.622 239.639 427.44 237.713 430.05 237.713C432.714 237.713 434.406 239.495 434.406 242.267V242.933L427.71 242.951C427.872 244.517 428.7 245.309 430.158 245.309C431.364 245.309 432.156 244.841 432.408 243.995H434.442C434.064 245.939 432.444 247.109 430.122 247.109ZM430.068 239.513C428.772 239.513 427.98 240.215 427.764 241.547H432.228C432.228 240.323 431.382 239.513 430.068 239.513ZM438.359 246.875H436.163V237.983H438.197L438.377 239.135C438.935 238.235 440.015 237.713 441.221 237.713C443.453 237.713 444.605 239.099 444.605 241.403V246.875H442.409V241.925C442.409 240.431 441.671 239.711 440.537 239.711C439.187 239.711 438.359 240.647 438.359 242.087V246.875ZM449.787 246.875H447.591V239.819H445.881V237.983H447.591V235.211H449.787V237.983H451.515V239.819H449.787V246.875Z" fill="white"/>
<path d="M266.681 270.029C263.797 270.029 261.879 267.957 261.879 264.821C261.879 261.699 263.853 259.585 266.751 259.585C269.033 259.585 270.783 260.943 271.161 263.015H269.691C269.313 261.699 268.179 260.901 266.709 260.901C264.665 260.901 263.321 262.441 263.321 264.807C263.321 267.173 264.665 268.713 266.709 268.713C268.193 268.713 269.369 267.915 269.747 266.669H271.203C270.769 268.685 268.963 270.029 266.681 270.029ZM276.581 262.973V264.177H275.993C274.747 264.177 273.977 264.933 273.977 266.249V269.875H272.661V263.043H273.893L273.977 264.079C274.257 263.365 274.943 262.889 275.881 262.889C276.119 262.889 276.315 262.917 276.581 262.973ZM280.523 270.043C278.507 270.043 277.121 268.587 277.121 266.459C277.121 264.317 278.479 262.833 280.467 262.833C282.413 262.833 283.687 264.177 283.687 266.207V266.697L278.395 266.711C278.493 268.153 279.249 268.951 280.551 268.951C281.573 268.951 282.245 268.531 282.469 267.747H283.701C283.365 269.217 282.217 270.043 280.523 270.043ZM280.467 263.939C279.319 263.939 278.591 264.625 278.423 265.829H282.371C282.371 264.695 281.629 263.939 280.467 263.939ZM287.091 270.043C285.621 270.043 284.753 269.217 284.753 267.971C284.753 266.711 285.691 265.927 287.301 265.801L289.457 265.633V265.437C289.457 264.289 288.771 263.883 287.847 263.883C286.741 263.883 286.111 264.373 286.111 265.199H284.963C284.963 263.771 286.139 262.833 287.903 262.833C289.597 262.833 290.745 263.729 290.745 265.577V269.875H289.625L289.485 268.769C289.135 269.553 288.197 270.043 287.091 270.043ZM287.469 269.021C288.715 269.021 289.471 268.209 289.471 266.921V266.557L287.721 266.697C286.559 266.809 286.083 267.257 286.083 267.929C286.083 268.657 286.615 269.021 287.469 269.021ZM294.39 269.875H293.074V264.135H291.73V263.029H293.074V260.887H294.39V263.029H295.734V264.135H294.39V269.875ZM297.559 261.405C297.083 261.405 296.691 261.013 296.691 260.537C296.691 260.047 297.083 259.669 297.559 259.669C298.035 259.669 298.427 260.047 298.427 260.537C298.427 261.013 298.035 261.405 297.559 261.405ZM296.915 269.875V263.029H298.231V269.875H296.915ZM301.457 269.875H300.141V263.029H301.331L301.471 264.079C301.905 263.295 302.773 262.833 303.739 262.833C305.545 262.833 306.371 263.939 306.371 265.689V269.875H305.055V265.983C305.055 264.597 304.411 264.037 303.403 264.037C302.171 264.037 301.457 264.919 301.457 266.249V269.875ZM307.76 266.277C307.76 264.345 309.006 262.833 310.994 262.833C312.1 262.833 312.954 263.337 313.388 264.191L313.486 263.029H314.662V269.595C314.662 271.751 313.332 273.123 311.232 273.123C309.37 273.123 308.096 272.073 307.844 270.337H309.16C309.328 271.345 310.084 271.933 311.232 271.933C312.52 271.933 313.36 271.093 313.36 269.791V268.419C312.912 269.217 312.016 269.693 310.938 269.693C308.992 269.693 307.76 268.195 307.76 266.277ZM309.076 266.249C309.076 267.537 309.874 268.545 311.162 268.545C312.492 268.545 313.304 267.593 313.304 266.249C313.304 264.933 312.52 263.981 311.176 263.981C309.86 263.981 309.076 264.989 309.076 266.249ZM322.392 270.043C320.922 270.043 320.054 269.217 320.054 267.971C320.054 266.711 320.992 265.927 322.602 265.801L324.758 265.633V265.437C324.758 264.289 324.072 263.883 323.148 263.883C322.042 263.883 321.412 264.373 321.412 265.199H320.264C320.264 263.771 321.44 262.833 323.204 262.833C324.898 262.833 326.046 263.729 326.046 265.577V269.875H324.926L324.786 268.769C324.436 269.553 323.498 270.043 322.392 270.043ZM322.77 269.021C324.016 269.021 324.772 268.209 324.772 266.921V266.557L323.022 266.697C321.86 266.809 321.384 267.257 321.384 267.929C321.384 268.657 321.916 269.021 322.77 269.021ZM327.868 272.941V263.029H329.058L329.156 264.261C329.618 263.323 330.542 262.833 331.634 262.833C333.594 262.833 334.812 264.303 334.812 266.403C334.812 268.489 333.664 270.057 331.634 270.057C330.542 270.057 329.632 269.595 329.184 268.755V272.941H327.868ZM329.198 266.459C329.198 267.859 330.01 268.867 331.354 268.867C332.698 268.867 333.496 267.859 333.496 266.459C333.496 265.045 332.698 264.037 331.354 264.037C330.01 264.037 329.198 265.031 329.198 266.459ZM336.263 272.941V263.029H337.453L337.551 264.261C338.013 263.323 338.937 262.833 340.029 262.833C341.989 262.833 343.207 264.303 343.207 266.403C343.207 268.489 342.059 270.057 340.029 270.057C338.937 270.057 338.027 269.595 337.579 268.755V272.941H336.263ZM337.593 266.459C337.593 267.859 338.405 268.867 339.749 268.867C341.093 268.867 341.891 267.859 341.891 266.459C341.891 265.045 341.093 264.037 339.749 264.037C338.405 264.037 337.593 265.031 337.593 266.459ZM346.001 269.875H344.685V259.571H346.001V269.875ZM348.582 261.405C348.106 261.405 347.714 261.013 347.714 260.537C347.714 260.047 348.106 259.669 348.582 259.669C349.058 259.669 349.45 260.047 349.45 260.537C349.45 261.013 349.058 261.405 348.582 261.405ZM347.938 269.875V263.029H349.254V269.875H347.938ZM350.717 266.459C350.717 264.317 352.075 262.833 354.077 262.833C355.799 262.833 357.003 263.813 357.241 265.339H355.925C355.701 264.471 355.001 264.009 354.119 264.009C352.873 264.009 352.019 264.961 352.019 266.445C352.019 267.915 352.817 268.867 354.063 268.867C355.001 268.867 355.701 268.377 355.939 267.565H357.255C356.989 269.049 355.715 270.043 354.063 270.043C352.047 270.043 350.717 268.615 350.717 266.459ZM360.645 270.043C359.175 270.043 358.307 269.217 358.307 267.971C358.307 266.711 359.245 265.927 360.855 265.801L363.011 265.633V265.437C363.011 264.289 362.325 263.883 361.401 263.883C360.295 263.883 359.665 264.373 359.665 265.199H358.517C358.517 263.771 359.693 262.833 361.457 262.833C363.151 262.833 364.299 263.729 364.299 265.577V269.875H363.179L363.039 268.769C362.689 269.553 361.751 270.043 360.645 270.043ZM361.023 269.021C362.269 269.021 363.025 268.209 363.025 266.921V266.557L361.275 266.697C360.113 266.809 359.637 267.257 359.637 267.929C359.637 268.657 360.169 269.021 361.023 269.021ZM367.945 269.875H366.629V264.135H365.285V263.029H366.629V260.887H367.945V263.029H369.289V264.135H367.945V269.875ZM371.114 261.405C370.638 261.405 370.246 261.013 370.246 260.537C370.246 260.047 370.638 259.669 371.114 259.669C371.59 259.669 371.982 260.047 371.982 260.537C371.982 261.013 371.59 261.405 371.114 261.405ZM370.47 269.875V263.029H371.786V269.875H370.47ZM373.248 266.445C373.248 264.331 374.76 262.847 376.818 262.847C378.862 262.847 380.374 264.331 380.374 266.445C380.374 268.559 378.862 270.043 376.818 270.043C374.76 270.043 373.248 268.559 373.248 266.445ZM374.578 266.445C374.578 267.873 375.488 268.867 376.818 268.867C378.134 268.867 379.058 267.873 379.058 266.445C379.058 265.017 378.134 264.023 376.818 264.023C375.488 264.023 374.578 265.017 374.578 266.445ZM383.147 269.875H381.831V263.029H383.021L383.161 264.079C383.595 263.295 384.463 262.833 385.429 262.833C387.235 262.833 388.061 263.939 388.061 265.689V269.875H386.745V265.983C386.745 264.597 386.101 264.037 385.093 264.037C383.861 264.037 383.147 264.919 383.147 266.249V269.875ZM389.242 267.887H390.502C390.502 268.587 391.034 269.007 391.902 269.007C392.826 269.007 393.358 268.629 393.358 267.999C393.358 267.537 393.134 267.257 392.42 267.075L391.216 266.795C389.998 266.501 389.424 265.899 389.424 264.891C389.424 263.631 390.488 262.833 392 262.833C393.498 262.833 394.478 263.673 394.506 264.975H393.246C393.218 264.289 392.756 263.855 391.958 263.855C391.132 263.855 390.67 264.219 390.67 264.849C390.67 265.311 391.006 265.619 391.678 265.787L392.882 266.081C394.044 266.361 394.618 266.893 394.618 267.915C394.618 269.217 393.498 270.043 391.874 270.043C390.264 270.043 389.242 269.189 389.242 267.887ZM399.177 263.029H400.185V261.937C400.185 260.257 401.109 259.571 402.355 259.571C402.607 259.571 402.901 259.585 403.167 259.627V260.761H402.579C401.725 260.761 401.501 261.195 401.501 261.937V263.029H403.125V264.135H401.501V269.875H400.185V264.135H399.177V263.029ZM408.268 262.973V264.177H407.68C406.434 264.177 405.664 264.933 405.664 266.249V269.875H404.348V263.043H405.58L405.664 264.079C405.944 263.365 406.63 262.889 407.568 262.889C407.806 262.889 408.002 262.917 408.268 262.973ZM408.809 266.445C408.809 264.331 410.321 262.847 412.379 262.847C414.423 262.847 415.935 264.331 415.935 266.445C415.935 268.559 414.423 270.043 412.379 270.043C410.321 270.043 408.809 268.559 408.809 266.445ZM410.139 266.445C410.139 267.873 411.049 268.867 412.379 268.867C413.695 268.867 414.619 267.873 414.619 266.445C414.619 265.017 413.695 264.023 412.379 264.023C411.049 264.023 410.139 265.017 410.139 266.445ZM418.707 269.875H417.391V263.029H418.567L418.693 263.925C419.043 263.281 419.771 262.833 420.737 262.833C421.801 262.833 422.557 263.365 422.907 264.219C423.229 263.365 424.055 262.833 425.119 262.833C426.687 262.833 427.639 263.813 427.639 265.395V269.875H426.351V265.717C426.351 264.639 425.749 264.023 424.825 264.023C423.831 264.023 423.173 264.723 423.173 265.815V269.875H421.871V265.703C421.871 264.625 421.283 264.037 420.359 264.037C419.365 264.037 418.707 264.723 418.707 265.815V269.875ZM432.732 267.887H433.992C433.992 268.587 434.524 269.007 435.392 269.007C436.316 269.007 436.848 268.629 436.848 267.999C436.848 267.537 436.624 267.257 435.91 267.075L434.706 266.795C433.488 266.501 432.914 265.899 432.914 264.891C432.914 263.631 433.978 262.833 435.49 262.833C436.988 262.833 437.968 263.673 437.996 264.975H436.736C436.708 264.289 436.246 263.855 435.448 263.855C434.622 263.855 434.16 264.219 434.16 264.849C434.16 265.311 434.496 265.619 435.168 265.787L436.372 266.081C437.534 266.361 438.108 266.893 438.108 267.915C438.108 269.217 436.988 270.043 435.364 270.043C433.754 270.043 432.732 269.189 432.732 267.887ZM439.567 272.941V263.029H440.757L440.855 264.261C441.317 263.323 442.241 262.833 443.333 262.833C445.293 262.833 446.511 264.303 446.511 266.403C446.511 268.489 445.363 270.057 443.333 270.057C442.241 270.057 441.331 269.595 440.883 268.755V272.941H439.567ZM440.897 266.459C440.897 267.859 441.709 268.867 443.053 268.867C444.397 268.867 445.195 267.859 445.195 266.459C445.195 265.045 444.397 264.037 443.053 264.037C441.709 264.037 440.897 265.031 440.897 266.459ZM450.916 270.043C448.9 270.043 447.514 268.587 447.514 266.459C447.514 264.317 448.872 262.833 450.86 262.833C452.806 262.833 454.08 264.177 454.08 266.207V266.697L448.788 266.711C448.886 268.153 449.642 268.951 450.944 268.951C451.966 268.951 452.638 268.531 452.862 267.747H454.094C453.758 269.217 452.61 270.043 450.916 270.043ZM450.86 263.939C449.712 263.939 448.984 264.625 448.816 265.829H452.764C452.764 264.695 452.022 263.939 450.86 263.939ZM455.102 266.459C455.102 264.317 456.46 262.833 458.462 262.833C460.184 262.833 461.388 263.813 461.626 265.339H460.31C460.086 264.471 459.386 264.009 458.504 264.009C457.258 264.009 456.404 264.961 456.404 266.445C456.404 267.915 457.202 268.867 458.448 268.867C459.386 268.867 460.086 268.377 460.324 267.565H461.64C461.374 269.049 460.1 270.043 458.448 270.043C456.432 270.043 455.102 268.615 455.102 266.459ZM463.672 261.405C463.196 261.405 462.804 261.013 462.804 260.537C462.804 260.047 463.196 259.669 463.672 259.669C464.148 259.669 464.54 260.047 464.54 260.537C464.54 261.013 464.148 261.405 463.672 261.405ZM463.028 269.875V263.029H464.344V269.875H463.028ZM465.527 263.029H466.535V261.937C466.535 260.257 467.459 259.571 468.705 259.571C468.957 259.571 469.251 259.585 469.517 259.627V260.761H468.929C468.075 260.761 467.851 261.195 467.851 261.937V263.029H469.475V264.135H467.851V269.875H466.535V264.135H465.527V263.029ZM471.342 261.405C470.866 261.405 470.474 261.013 470.474 260.537C470.474 260.047 470.866 259.669 471.342 259.669C471.818 259.669 472.21 260.047 472.21 260.537C472.21 261.013 471.818 261.405 471.342 261.405ZM470.698 269.875V263.029H472.014V269.875H470.698ZM473.477 266.459C473.477 264.317 474.835 262.833 476.837 262.833C478.559 262.833 479.763 263.813 480.001 265.339H478.685C478.461 264.471 477.761 264.009 476.879 264.009C475.633 264.009 474.779 264.961 474.779 266.445C474.779 267.915 475.577 268.867 476.823 268.867C477.761 268.867 478.461 268.377 478.699 267.565H480.015C479.749 269.049 478.475 270.043 476.823 270.043C474.807 270.043 473.477 268.615 473.477 266.459ZM483.405 270.043C481.935 270.043 481.067 269.217 481.067 267.971C481.067 266.711 482.005 265.927 483.615 265.801L485.771 265.633V265.437C485.771 264.289 485.085 263.883 484.161 263.883C483.055 263.883 482.425 264.373 482.425 265.199H481.277C481.277 263.771 482.453 262.833 484.217 262.833C485.911 262.833 487.059 263.729 487.059 265.577V269.875H485.939L485.799 268.769C485.449 269.553 484.511 270.043 483.405 270.043ZM483.783 269.021C485.029 269.021 485.785 268.209 485.785 266.921V266.557L484.035 266.697C482.873 266.809 482.397 267.257 482.397 267.929C482.397 268.657 482.929 269.021 483.783 269.021ZM490.704 269.875H489.388V264.135H488.044V263.029H489.388V260.887H490.704V263.029H492.048V264.135H490.704V269.875ZM493.873 261.405C493.397 261.405 493.005 261.013 493.005 260.537C493.005 260.047 493.397 259.669 493.873 259.669C494.349 259.669 494.741 260.047 494.741 260.537C494.741 261.013 494.349 261.405 493.873 261.405ZM493.229 269.875V263.029H494.545V269.875H493.229ZM496.008 266.445C496.008 264.331 497.52 262.847 499.578 262.847C501.622 262.847 503.134 264.331 503.134 266.445C503.134 268.559 501.622 270.043 499.578 270.043C497.52 270.043 496.008 268.559 496.008 266.445ZM497.338 266.445C497.338 267.873 498.248 268.867 499.578 268.867C500.894 268.867 501.818 267.873 501.818 266.445C501.818 265.017 500.894 264.023 499.578 264.023C498.248 264.023 497.338 265.017 497.338 266.445ZM505.907 269.875H504.591V263.029H505.781L505.921 264.079C506.355 263.295 507.223 262.833 508.189 262.833C509.995 262.833 510.821 263.939 510.821 265.689V269.875H509.505V265.983C509.505 264.597 508.861 264.037 507.853 264.037C506.621 264.037 505.907 264.919 505.907 266.249V269.875ZM512.001 267.887H513.261C513.261 268.587 513.793 269.007 514.661 269.007C515.585 269.007 516.117 268.629 516.117 267.999C516.117 267.537 515.893 267.257 515.179 267.075L513.975 266.795C512.757 266.501 512.183 265.899 512.183 264.891C512.183 263.631 513.247 262.833 514.759 262.833C516.257 262.833 517.237 263.673 517.265 264.975H516.005C515.977 264.289 515.515 263.855 514.717 263.855C513.891 263.855 513.429 264.219 513.429 264.849C513.429 265.311 513.765 265.619 514.437 265.787L515.641 266.081C516.803 266.361 517.377 266.893 517.377 267.915C517.377 269.217 516.257 270.043 514.633 270.043C513.023 270.043 512.001 269.189 512.001 267.887ZM519.735 270.043C519.189 270.043 518.727 269.595 518.727 269.063C518.727 268.517 519.189 268.069 519.735 268.069C520.267 268.069 520.729 268.517 520.729 269.063C520.729 269.595 520.267 270.043 519.735 270.043Z" fill="#FCE5CF"/>
<path d="M218.251 230.167C222.836 228.677 227.774 228.677 232.358 230.167C236.942 231.656 240.938 234.559 243.771 238.459C246.604 242.358 248.13 247.055 248.13 251.875C248.13 256.695 246.604 261.392 243.771 265.291C240.938 269.191 236.942 272.094 232.358 273.583C227.774 275.073 222.836 275.073 218.251 273.583C213.667 272.094 209.672 269.191 206.839 265.291C204.005 261.392 202.479 256.695 202.479 251.875C202.479 247.055 204.005 242.358 206.839 238.459C209.672 234.559 213.667 231.656 218.251 230.167Z" fill="white"/>
<path d="M230.24 258.857L221.456 258.875V257.525L225.65 253.907C227.756 252.089 228.35 251.207 228.35 249.821C228.35 248.183 227.414 247.211 225.848 247.211C224.246 247.211 223.202 248.381 223.166 250.235H221.402C221.456 247.445 223.22 245.627 225.866 245.627C228.476 245.627 230.15 247.211 230.15 249.713C230.15 251.567 229.232 252.881 226.928 254.879L224.228 257.219H230.24V258.857Z" fill="#16063E"/>
<defs>
<clipPath id="clip0_2_36">
<rect x="52.8372" y="56.7684" width="370" height="76" rx="20" transform="rotate(11.0024 52.8372 56.7684)" fill="white"/>
</clipPath>
<clipPath id="clip1_2_36">
<rect x="6.125" y="287.141" width="332" height="72" rx="20" transform="rotate(4.88 6.125 287.141)" fill="white"/>
</clipPath>
<clipPath id="clip2_2_36">
<rect x="13.3047" y="495.527" width="332" height="72" rx="20" transform="rotate(-10 13.3047 495.527)" fill="white"/>
</clipPath>
<clipPath id="clip3_2_36">
<rect x="199.808" y="389.879" width="332" height="72" rx="20" transform="rotate(10 199.808 389.879)" fill="white"/>
</clipPath>
</defs>
</svg>
